<svg width="77" height="67" viewBox="0 0 77 67" fill="none" xmlns="http://www.w3.org/2000/svg">
<path d="M44.4466 23.9975L41.0677 20.199C42.3889 13.132 47.5647 8.91092 52.8793 7.51371C55.5987 6.79875 58.3023 6.8393 60.4931 7.57771C62.6702 8.3115 64.3106 9.71703 65.0617 11.7556C65.8351 13.855 65.5762 15.5668 64.6731 17.011C63.7387 18.5054 62.0556 19.8021 59.8328 20.8654C55.5167 22.9299 49.5291 23.9413 44.4466 23.9975Z" fill="#FFF495" stroke="#494949" stroke-width="2"/>
<path d="M46.4377 23.9979L46.1724 23.7087C47.841 19.9166 50.1312 17.2048 53.2099 15.6105C56.3108 14.0046 60.3397 13.4661 65.5935 14.2747C65.7165 16.0369 65.2023 17.4444 64.2741 18.6038C63.1971 19.9488 61.5132 21.0174 59.4439 21.8379C55.452 23.4208 50.335 23.9606 46.4377 23.9979Z" fill="#FFA439" stroke="#494949" stroke-width="2"/>
<path d="M33.1648 23.9975L36.5438 20.199C35.2225 13.132 30.0467 8.91092 24.7322 7.51371C22.0127 6.79875 19.3091 6.8393 17.1184 7.57771C14.9413 8.3115 13.3008 9.71703 12.5498 11.7556C11.7763 13.855 12.0353 15.5668 12.9383 17.011C13.8728 18.5054 15.5558 19.8021 17.7786 20.8654C22.0948 22.9299 28.0823 23.9413 33.1648 23.9975Z" fill="#FFF495" stroke="#494949" stroke-width="2"/>
<path d="M31.1737 23.9979L31.439 23.7087C29.7705 19.9166 27.4802 17.2048 24.4016 15.6105C21.3007 14.0046 17.2718 13.4661 12.018 14.2747C11.895 16.0369 12.4091 17.4444 13.3374 18.6038C14.4144 19.9488 16.0983 21.0174 18.1676 21.8379C22.1594 23.4208 27.2765 23.9606 31.1737 23.9979Z" fill="#FFA439" stroke="#494949" stroke-width="2"/>
<path d="M10 26C10 24.8954 10.8954 24 12 24H66C67.1046 24 68 24.8954 68 26V36H10V26Z" fill="#54A7FF" stroke="#494949" stroke-width="2"/>
<path d="M14 36H64V64C64 65.1046 63.1046 66 62 66H16C14.8954 66 14 65.1046 14 64V36Z" fill="#D2E1F1" stroke="#494949" stroke-width="2"/>
<path d="M63 37H20C20 51.0799 47.6401 60 63 60V37Z" fill="#54A7FF"/>
<rect x="33" y="24" width="12" height="42" rx="1" fill="#FFF495" stroke="#494949" stroke-width="2"/>
<path d="M45 1L42.3392 5.87806M32.5 1L37.2086 8.96836C37.9982 10.3047 39.9429 10.2713 40.6862 8.9086L40.784 8.72935" stroke="#416AA3" stroke-width="2" stroke-linecap="round"/>
<path d="M37 28V41M37 45V46" stroke="#494949" stroke-width="2" stroke-linecap="round"/>
<path d="M43.8604 19.5084C44.8732 20.3789 45.559 21.7587 45.1881 24H45.1707H45.15H45.1292H45.1082H45.0871H45.0659H45.0445H45.0231H45.0015H44.9797H44.9579H44.9359H44.9138H44.8916H44.8693H44.8468H44.8242H44.8015H44.7787H44.7557H44.7327H44.7095H44.6862H44.6628H44.6393H44.6156H44.5919H44.568H44.544H44.5199H44.4957H44.4714H44.447H44.4224H44.3978H44.373H44.3481H44.3232H44.2981H44.2729H44.2476H44.2222H44.1967H44.1711H44.1454H44.1196H44.0936H44.0676H44.0415H44.0153H43.989H43.9625H43.936H43.9094H43.8827H43.8559H43.829H43.802H43.7749H43.7477H43.7204H43.6931H43.6656H43.6381H43.6104H43.5827H43.5548H43.5269H43.4989H43.4708H43.4427H43.4144H43.3861H43.3576H43.3291H43.3005H43.2718H43.243H43.2142H43.1853H43.1562H43.1272H43.098H43.0687H43.0394H43.01H42.9805H42.951H42.9213H42.8916H42.8618H42.832H42.802H42.772H42.7419H42.7118H42.6816H42.6513H42.6209H42.5905H42.56H42.5294H42.4988H42.4681H42.4374H42.4065H42.3756H42.3447H42.3137H42.2826H42.2514H42.2202H42.189H42.1576H42.1263H42.0948H42.0633H42.0317H42.0001H41.9685H41.9367H41.9049H41.8731H41.8412H41.8093H41.7773H41.7452H41.7131H41.681H41.6488H41.6165H41.5842H41.5519H41.5195H41.487H41.4545H41.422H41.3894H41.3568H41.3241H41.2914H41.2587H41.2259H41.193H41.1602H41.1272H41.0943H41.0613H41.0282H40.9952H40.9621H40.9289H40.8957H40.8625H40.8293H40.796H40.7627H40.7293H40.6959H40.6625H40.6291H40.5956H40.5621H40.5286H40.495H40.4614H40.4278H40.3942H40.3605H40.3268H40.2931H40.2594H40.2256H40.1918H40.158H40.1242H40.0903H40.0565H40.0226H39.9887H39.9547H39.9208H39.8868H39.8529H39.8189H39.7849H39.7508H39.7168H39.6828H39.6487H39.6146H39.5805H39.5464H39.5123H39.4782H39.4441H39.41H39.3758H39.3417H39.3075H39.2734H39.2392H39.2051H39.1709H39.1367H39.1025H39.0684H39.0342H39H38.9658H38.9316H38.8975H38.8633H38.8291H38.7949H38.7608H38.7266H38.6925H38.6583H38.6242H38.59H38.5559H38.5218H38.4877H38.4535H38.4195H38.3854H38.3513H38.3172H38.2832H38.2492H38.2151H38.1811H38.1471H38.1132H38.0792H38.0453H38.0113H37.9774H37.9435H37.9097H37.8758H37.842H37.8082H37.7744H37.7406H37.7069H37.6732H37.6395H37.6058H37.5722H37.5386H37.505H37.4714H37.4379H37.4044H37.3709H37.3375H37.304H37.2707H37.2373H37.204H37.1707H37.1375H37.1043H37.0711H37.0379H37.0048H36.9717H36.9387H36.9057H36.8728H36.8398H36.807H36.7741H36.7413H36.7086H36.6759H36.6432H36.6106H36.578H36.5455H36.513H36.4805H36.4481H36.4158H36.3835H36.3512H36.319H36.2869H36.2548H36.2227H36.1907H36.1588H36.1269H36.0951H36.0633H36.0315H35.9999H35.9682H35.9367H35.9052H35.8737H35.8424H35.811H35.7798H35.7486H35.7174H35.6863H35.6553H35.6244H35.5935H35.5626H35.5319H35.5012H35.4706H35.44H35.4095H35.3791H35.3487H35.3184H35.2882H35.258H35.228H35.198H35.168H35.1382H35.1084H35.0787H35.049H35.0195H34.99H34.9606H34.9313H34.902H34.8728H34.8437H34.8147H34.7858H34.757H34.7282H34.6995H34.6709H34.6424H34.6139H34.5856H34.5573H34.5292H34.5011H34.4731H34.4451H34.4173H34.3896H34.3619H34.3344H34.3069H34.2795H34.2523H34.2251H34.198H34.171H34.1441H34.1173H34.0906H34.064H34.0374H34.011H33.9847H33.9585H33.9324H33.9064H33.8804H33.8546H33.8289H33.8033H33.7778H33.7524H33.7271H33.7019H33.6768H33.6519H33.627H33.6022H33.5776H33.553H33.5286H33.5043H33.4801H33.456H33.432H33.4081H33.3844H33.3607H33.3372H33.3138H33.2905H33.2673H33.2442H33.2213H33.1985H33.1758H33.1532H33.1307H33.1084H33.0862H33.0641H33.0421H33.0202H32.9985H32.9769H32.9554H32.9341H32.9129H32.8918H32.8708H32.85H32.8293H32.8119C32.441 21.7587 33.1268 20.3789 34.1396 19.5084C35.3455 18.4718 37.1999 18 39 18C40.8001 18 42.6545 18.4718 43.8604 19.5084Z" fill="#FFF495" stroke="#494949" stroke-width="2"/>
<path d="M1 66H6M10 66H71M75 66H76" stroke="#494949" stroke-width="2" stroke-linecap="round"/>
</svg>
