<svg width="24" height="24" viewBox="0 0 24 24" fill="none" xmlns="http://www.w3.org/2000/svg">
<path d="M1.5 7C0.671573 7 0 7.67157 0 8.5L0 11C0 11.5523 0.447716 12 1 12H2L2 22.5C2 23.3284 2.67157 24 3.5 24L20.5 24C21.3284 24 22 23.3284 22 22.5L22 12H23C23.5523 12 24 11.5523 24 11L24 8.5C24 7.67157 23.3284 7 22.5 7L1.5 7Z" fill="#54A7FF"/>
<path d="M4 12L22 12L22 22L13 22C8.02944 22 4 17.9706 4 13L4 12Z" fill="#3390F2"/>
<path d="M19 7L5 7C5 7 6 8.5 8 8.5L16 8.5C18 8.5 19 7.33333 19 7Z" fill="#006CDF"/>
<path d="M22 12L2 12C2 12 3 14 5 14L17.0021 14C18.659 14 20 15.343 20 16.9999L20 19C20 21 22 22 22 22L22 12Z" fill="#006CDF"/>
<path d="M10 23L21.91 23C21.91 23.125 21.5 24 20.5 24L8 24C8 24 8.5 23 10 23Z" fill="#006CDF"/>
<path fill-rule="evenodd" clip-rule="evenodd" d="M3.25129 2.68362C3.65538 1.47132 4.51229 0.706222 5.56731 0.399056C6.57759 0.104916 7.68776 0.249951 8.67375 0.647295C10.0099 1.18576 11.3131 2.27538 12 3.74906C12.6869 2.27538 13.99 1.18576 15.3262 0.647295C16.3122 0.249951 17.4224 0.104916 18.4326 0.399056C19.4877 0.706222 20.3446 1.47132 20.7487 2.68362C21.1589 3.91446 20.8975 5.00472 20.1633 5.82366C19.6844 6.3578 19.0423 6.7364 18.3645 7L14 7L14 24H10L10 7L5.63549 7C4.95762 6.7364 4.31553 6.3578 3.83665 5.82366C3.10243 5.00472 2.84101 3.91446 3.25129 2.68362ZM9.36615 5.54573C9.80315 5.51723 10.1639 5.45345 10.4393 5.37633C10.1822 4.06489 9.14038 2.99163 7.92619 2.50233C7.23718 2.22467 6.59735 2.1822 6.12639 2.31932C5.70016 2.44342 5.34456 2.72834 5.14866 3.31607C4.95893 3.88526 5.08501 4.22001 5.32579 4.48857C5.62617 4.82361 6.19015 5.12981 6.97401 5.33137C7.73786 5.52778 8.59994 5.59569 9.36615 5.54573ZM14.6338 5.54573C14.1968 5.51723 13.836 5.45345 13.5607 5.37633C13.8177 4.0649 14.8596 2.99163 16.0738 2.50233C16.7628 2.22467 17.4026 2.1822 17.8736 2.31932C18.2998 2.44342 18.6554 2.72834 18.8513 3.31607C19.041 3.88526 18.9149 4.22001 18.6742 4.48857C18.3738 4.82361 17.8098 5.12981 17.0259 5.33137C16.2621 5.52778 15.4 5.59569 14.6338 5.54573Z" fill="#FF8A00"/>
<path d="M10.4429 5.37671C8.51247 5.83174 5.39303 5.37671 5.07068 4.00171C5.30412 5.86729 6 7 8 7C10 7 11 7 12 6.5C13 6 12.3733 4.92168 10.4429 5.37671Z" fill="#CA5500"/>
<path d="M10 8.5L10 7L14 7L14 8.5L10 8.5Z" fill="#CA5500"/>
<path d="M10 13.5L10 12L14 12L14 13.5L10 13.5Z" fill="#CA5500"/>
<path d="M14 24L14 23H10L10 24H14Z" fill="#CA5500"/>
<path d="M2 22.5L2 14C2 14 3.5 15 3.5 17L3.5 21.501C3.5 22.0532 3.83592 22.5 4.38821 22.5H5C7 22.5 8 24 8 24H3.5C2.67157 24 2 23.3284 2 22.5Z" fill="#3390F2"/>
<path d="M10 11H14L14 12H10L10 11Z" fill="#FFE500"/>
<path d="M14 7H10C10 6.33333 10.4 5 12 5C13.6 5 14 6.33333 14 7Z" fill="#FFE500"/>
<path d="M18.9999 0.621144C15.7592 -0.814924 12.5438 2.17056 12 3.74997C11.4561 5.32937 13.4051 6.32111 13.5585 5.37497C13.712 4.42882 15.6444 0.554783 18.9999 0.621144Z" fill="#FFB525"/>
<path d="M24 11L24 8.5C24 8.5 22.5 9 22.5 10.5H20C18 10.5 17 12 17 12H23C23.5523 12 24 11.5523 24 11Z" fill="#8CC4FF"/>
<path d="M1 3C1.55228 3 2 2.55228 2 2C2 1.44772 1.55228 1 1 1C0.447715 1 0 1.44772 0 2C0 2.55228 0.447715 3 1 3Z" fill="#0BCF1F"/>
<path d="M22.25 5.5C22.6642 5.5 23 5.16421 23 4.75C23 4.33579 22.6642 4 22.25 4C21.8358 4 21.5 4.33579 21.5 4.75C21.5 5.16421 21.8358 5.5 22.25 5.5Z" fill="#0BCF1F"/>
<path d="M23 2.5C23.5523 2.5 24 2.05228 24 1.5C24 0.947715 23.5523 0.5 23 0.5C22.4477 0.5 22 0.947715 22 1.5C22 2.05228 22.4477 2.5 23 2.5Z" fill="#FF4228"/>
<path d="M1.75 5.5C2.16421 5.5 2.5 5.16421 2.5 4.75C2.5 4.33579 2.16421 4 1.75 4C1.33579 4 1 4.33579 1 4.75C1 5.16421 1.33579 5.5 1.75 5.5Z" fill="#FF4228"/>
<path d="M12.75 0.75C12.75 1.16421 12.4142 1.5 12 1.5C11.5858 1.5 11.25 1.16421 11.25 0.75C11.25 0.335786 11.5858 0 12 0C12.4142 0 12.75 0.335786 12.75 0.75Z" fill="#F012CD"/>
</svg>
