<svg width="32" height="33" viewBox="0 0 32 33" fill="none" xmlns="http://www.w3.org/2000/svg">
<path fill-rule="evenodd" clip-rule="evenodd" d="M22.3836 8.95884C22.3836 7.25108 21.0005 5.86667 19.2944 5.86667H17.9315V4.04775C17.9315 3.69616 17.6468 3.41113 17.2955 3.41113C16.9443 3.41113 16.6595 3.69616 16.6595 4.04775V5.86667H9.75422V4.04775C9.75422 3.69616 9.46946 3.41113 9.1182 3.41113C8.76694 3.41113 8.48219 3.69616 8.48219 4.04775V5.86667H6.75587C5.04974 5.86667 3.66666 7.25108 3.66666 8.95884V22.4188C3.66666 24.1266 5.04974 25.511 6.75587 25.511H11.6194C11.4444 25.1083 11.3176 24.6827 11.2434 24.2378H6.75587C5.75226 24.2378 4.93868 23.4234 4.93868 22.4188V11.3234H21.1116V22.4188C21.1116 23.4234 20.298 24.2378 19.2944 24.2378H14.7298C14.9521 24.693 15.3486 25.1522 15.9756 25.511H19.2944C21.0005 25.511 22.3836 24.1266 22.3836 22.4188V8.95884ZM21.1116 10.0502V8.95884C21.1116 7.95428 20.298 7.13992 19.2944 7.13992H6.75587C5.75226 7.13992 4.93868 7.95428 4.93868 8.95884V10.0502H21.1116Z" fill="#236D9E"/>
<path d="M9.1182 3.41113C9.46946 3.41113 9.75422 3.69616 9.75422 4.04775V5.86667H16.6595V4.04775C16.6595 3.69616 16.9443 3.41113 17.2955 3.41113C17.6468 3.41113 17.9315 3.69616 17.9315 4.04775V5.86667H19.2944C21.0005 5.86667 22.3836 7.25108 22.3836 8.95884V22.4188C22.3836 24.1266 21.0005 25.511 19.2944 25.511H6.75587C5.04974 25.511 3.66666 24.1266 3.66666 22.4188V8.95884C3.66666 7.25108 5.04974 5.86667 6.75587 5.86667H8.48219V4.04775C8.48219 3.69616 8.76694 3.41113 9.1182 3.41113Z" fill="#236D9E"/>
<path d="M4.9393 11.3232H21.1119V22.4022C21.1119 23.4157 20.2911 24.2373 19.2786 24.2373H14.7298C15.0033 24.7638 15.3374 25.1289 15.9811 25.5165H11.6218C11.4275 25.0368 11.3337 24.7502 11.2435 24.2373H6.77263C5.76011 24.2373 4.9393 23.4157 4.9393 22.4022V11.3232Z" fill="#D9F1FF"/>
<path d="M4.93881 8.97541C4.93881 7.96192 5.75962 7.14032 6.77215 7.14032H19.2787C20.2912 7.14032 21.112 7.96192 21.112 8.97541V10.05H4.93881V8.97541Z" fill="#87CBFF"/>
<path d="M18.1721 14.3916C18.4728 13.9279 18.341 13.308 17.8778 13.007C17.4146 12.706 16.7953 12.8378 16.4945 13.3015L12.7256 19.1127L9.29685 14.5856C8.9632 14.145 8.33595 14.0587 7.89584 14.3926C7.45573 14.7266 7.36943 15.3545 7.70308 15.795L11.9921 21.4579C12.1889 21.7178 12.4998 21.8654 12.8254 21.8535C13.151 21.8416 13.4503 21.6718 13.6277 21.3983L18.1721 14.3916Z" fill="#00A634"/>
<path fill-rule="evenodd" clip-rule="evenodd" d="M19.0509 28.694C23.0643 28.694 26.284 26.2325 26.7698 22.9011C27.7738 22.5761 28.5 21.6327 28.5 20.5196C28.5 19.1375 27.3807 18.0172 26 18.0172C24.6192 18.0172 23.5 19.1375 23.5 20.5196C23.5 21.5783 24.1569 22.4835 25.085 22.849C24.6335 25.1212 22.344 27.0258 19.0509 27.0258C15.3067 27.0258 13.6666 25.0471 13.6666 23.2983C13.6666 22.8376 13.2935 22.4641 12.8333 22.4641C12.3731 22.4641 12 22.8376 12 23.2983C12 26.2935 14.7487 28.694 19.0509 28.694ZM26.8333 20.5196C26.8333 20.9802 26.4602 21.3537 26 21.3537C25.5397 21.3537 25.1666 20.9802 25.1666 20.5196C25.1666 20.0589 25.5397 19.6854 26 19.6854C26.4602 19.6854 26.8333 20.0589 26.8333 20.5196Z" fill="#00A634"/>
</svg>
