<svg width="32" height="32" viewBox="0 0 32 32" fill="none" xmlns="http://www.w3.org/2000/svg">
<circle cx="16" cy="16" r="16" fill="#45668E"/>
<g clip-path="url(#clip0)">
<path d="M23.6354 11.8945C23.7453 11.5233 23.6354 11.25 23.1067 11.25H21.3572C20.9117 11.25 20.7067 11.4846 20.5968 11.746C20.5968 11.746 19.7058 13.9173 18.4464 15.3252C18.0394 15.7321 17.8523 15.8628 17.6296 15.8628C17.5197 15.8628 17.3504 15.7321 17.3504 15.3608V11.8945C17.3504 11.449 17.2256 11.25 16.8573 11.25H14.1068C13.8276 11.25 13.6613 11.4579 13.6613 11.651C13.6613 12.0728 14.291 12.1708 14.3563 13.3589V15.937C14.3563 16.5014 14.2554 16.6053 14.0326 16.6053C13.4385 16.6053 11.995 14.4252 11.1396 11.9302C10.9673 11.446 10.798 11.25 10.3495 11.25H8.60002C8.10102 11.25 8.00003 11.4846 8.00003 11.746C8.00003 12.2094 8.59408 14.5113 10.7653 17.5529C12.2118 19.6291 14.2494 20.7548 16.1028 20.7548C17.2167 20.7548 17.3533 20.5053 17.3533 20.0746C17.3533 18.0905 17.2523 17.9033 17.8107 17.9033C18.0691 17.9033 18.5147 18.034 19.5543 19.035C20.7424 20.2231 20.9384 20.7548 21.6037 20.7548H23.3532C23.8522 20.7548 24.1047 20.5053 23.9591 20.0122C23.6265 18.9756 21.378 16.843 21.277 16.7004C21.0186 16.3677 21.0929 16.2192 21.277 15.9222C21.28 15.9192 23.4156 12.9133 23.6354 11.8945Z" fill="white"/>
</g>
<defs>
<clipPath id="clip0">
<path d="M8 8H24V24H8V8Z" fill="white"/>
</clipPath>
</defs>
</svg>
