<svg width="32" height="32" viewBox="0 0 32 32" fill="none" xmlns="http://www.w3.org/2000/svg">
<circle cx="16" cy="16" r="16" fill="#8551A9"/>
<g clip-path="url(#clip0)">
<path d="M21.8749 9.55942C21.4781 9.19379 19.8718 8.02817 16.2906 8.01254C16.2906 8.01254 12.0687 7.75942 10.0124 9.64692C8.86868 10.7907 8.46556 12.4688 8.42181 14.5469C8.37806 16.625 8.32493 20.5188 12.0781 21.575H12.0812L12.0781 23.1875C12.0781 23.1875 12.0531 23.8407 12.4843 23.9719C13.0031 24.1344 13.3093 23.6375 13.8062 23.1032C14.0781 22.8094 14.4531 22.3782 14.7374 22.05C17.3062 22.2657 19.2781 21.7719 19.5031 21.7C20.0218 21.5313 22.9562 21.1563 23.4312 17.2625C23.9249 13.2438 23.1937 10.7063 21.8749 9.55942ZM22.3093 16.9688C21.9062 20.2188 19.5281 20.425 19.0906 20.5657C18.9031 20.625 17.1687 21.0563 14.9906 20.9157C14.9906 20.9157 13.3656 22.875 12.8593 23.3844C12.6937 23.55 12.5124 23.5344 12.5156 23.2063C12.5156 22.9907 12.5281 20.5282 12.5281 20.5282C12.5249 20.5282 12.5249 20.5282 12.5281 20.5282C9.34681 19.6469 9.53431 16.3313 9.56868 14.5969C9.60306 12.8625 9.93118 11.4407 10.8999 10.4844C12.6406 8.90629 16.2249 9.14067 16.2249 9.14067C19.2531 9.15317 20.7031 10.0657 21.0406 10.3719C22.1562 11.3282 22.7249 13.6157 22.3093 16.9688ZM17.9656 14.4438C17.9781 14.7125 17.5749 14.7313 17.5624 14.4625C17.5281 13.775 17.2062 13.4407 16.5437 13.4032C16.2749 13.3875 16.2999 12.9844 16.5656 13C17.4374 13.0469 17.9218 13.5469 17.9656 14.4438ZM18.5999 14.7969C18.6312 13.4719 17.8031 12.4344 16.2312 12.3188C15.9656 12.3 15.9937 11.8969 16.2593 11.9157C18.0718 12.0469 19.0374 13.2938 19.0031 14.8063C18.9999 15.075 18.5937 15.0625 18.5999 14.7969ZM20.0687 15.2157C20.0718 15.4844 19.6656 15.4875 19.6656 15.2188C19.6468 12.6719 17.9499 11.2844 15.8906 11.2688C15.6249 11.2657 15.6249 10.8657 15.8906 10.8657C18.1937 10.8813 20.0468 12.4719 20.0687 15.2157ZM19.7156 18.2813V18.2875C19.3781 18.8813 18.7468 19.5375 18.0968 19.3282L18.0906 19.3188C17.4312 19.1344 15.8781 18.3344 14.8968 17.5532C14.3906 17.1532 13.9281 16.6813 13.5718 16.2282C13.2499 15.825 12.9249 15.3469 12.6093 14.7719C11.9437 13.5688 11.7968 13.0313 11.7968 13.0313C11.5874 12.3813 12.2406 11.75 12.8374 11.4125H12.8437C13.1312 11.2625 13.4062 11.3125 13.5906 11.5344C13.5906 11.5344 13.9781 11.9969 14.1437 12.225C14.2999 12.4375 14.5093 12.7782 14.6187 12.9688C14.8093 13.3094 14.6906 13.6563 14.5031 13.8L14.1281 14.1C13.9374 14.2532 13.9624 14.5375 13.9624 14.5375C13.9624 14.5375 14.5187 16.6407 16.5968 17.1719C16.5968 17.1719 16.8812 17.1969 17.0343 17.0063L17.3343 16.6313C17.4781 16.4438 17.8249 16.325 18.1656 16.5157C18.6249 16.775 19.2093 17.1782 19.5968 17.5438C19.8156 17.7219 19.8656 17.9938 19.7156 18.2813Z" fill="white"/>
</g>
<defs>
<clipPath id="clip0">
<path d="M8 8H24V24H8V8Z" fill="white"/>
</clipPath>
</defs>
</svg>
