<svg width="24" height="24" viewBox="0 0 24 24" fill="none" xmlns="http://www.w3.org/2000/svg">
<path d="M15.882 21.9999C16.0054 22.2469 16.3058 22.347 16.5528 22.2235L17.4472 21.7763C17.6942 21.6528 17.7943 21.3525 17.6708 21.1055L8.11802 1.99989C7.99453 1.7529 7.69419 1.65279 7.4472 1.77628L6.55277 2.2235C6.30578 2.34699 6.20567 2.64733 6.32917 2.89432L15.882 21.9999Z" fill="black"/>
<path d="M19.563 16.9554H17.2728L16.0121 14.434H19.6499C20.6933 14.434 21.5628 13.5645 21.5628 12.5212C21.5628 11.4778 20.6933 10.6083 19.6499 10.6083H14.0993L12.8021 8.01398L19.563 8.08689C21.9975 8.08689 23.9973 10.0867 23.9973 12.5212C23.9991 12.5738 24 12.6263 24 12.6785V12.6801C23.9996 15.1261 22.0312 17.0405 19.563 16.9554Z" fill="black"/>
<path d="M4.43427 8.08692L7.2484 8.08692L8.50913 10.6084H4.34732C3.30396 10.6084 2.4345 11.4778 2.4345 12.5212C2.4345 13.5645 3.30396 14.434 4.34732 14.434L10.4219 14.434L11.6827 16.9554L4.43427 16.9555C1.99977 16.9555 0 14.9557 0 12.5212C0 10.0867 1.99977 8.08692 4.43427 8.08692Z" fill="black"/>
</svg>
