<?xml version="1.0" encoding="utf-8"?>
<!-- Generator: Adobe Illustrator 16.2.0, SVG Export Plug-In . SVG Version: 6.00 Build 0)  -->
<!DOCTYPE svg PUBLIC "-//W3C//DTD SVG 1.1//EN" "http://www.w3.org/Graphics/SVG/1.1/DTD/svg11.dtd">
<svg version="1.1" id="Слой_1" xmlns="http://www.w3.org/2000/svg" xmlns:xlink="http://www.w3.org/1999/xlink" x="0px" y="0px"
	 width="36.125px" height="36.125px" viewBox="0 0 36.125 36.125" enable-background="new 0 0 36.125 36.125" xml:space="preserve">
<path fill="#DDDDDD" d="M7.25,15.715c2.88,5.66,7.51,10.29,13.18,13.17l4.4-4.41c0.55-0.55,1.34-0.709,2.029-0.49
	c2.24,0.74,4.65,1.141,7.141,1.141c1.109,0,2,0.891,2,2v7c0,1.109-0.891,2-2,2c-18.779,0-34-15.221-34-34c0-1.11,0.9-2,2-2h7
	c1.11,0,2,0.89,2,2c0,2.49,0.4,4.9,1.14,7.14c0.22,0.69,0.06,1.48-0.49,2.03L7.25,15.715z"/>
</svg>
