<svg width="24" height="24" viewBox="0 0 24 24" fill="none" xmlns="http://www.w3.org/2000/svg">
<path d="M23.9973 12.5212C23.9973 10.0867 21.9975 8.08695 19.563 8.08695L11.9987 8C9.47721 8.08695 7.56439 9.99977 7.47745 12.5212C7.47745 12.6082 7.49918 12.7168 7.52092 12.8255C7.54266 12.9342 7.56439 13.0429 7.56439 13.1298H10.1728C10.1728 13.0429 10.1511 12.9342 10.1293 12.8256C10.1076 12.7169 10.0858 12.6082 10.0858 12.5212C10.0858 11.4779 10.9553 10.6084 11.9987 10.6084L19.6499 10.6084C20.6933 10.6084 21.5628 11.4779 21.5628 12.5212C21.5628 13.5646 20.6933 14.434 19.6499 14.434H17.3893C17.0416 15.4774 16.346 16.3469 15.5635 16.9555H19.563C22.0844 17.0424 24.0842 15.0427 23.9973 12.5212Z" fill="black"/>
<path d="M16.4329 11.9126H13.8245C13.8245 11.9126 13.9114 12.3474 13.9114 12.5212C13.9114 13.5646 13.042 14.4341 11.9986 14.4341L4.34732 14.4341C3.30396 14.4341 2.4345 13.5646 2.4345 12.5212C2.4345 11.4779 3.30396 10.6084 4.34732 10.6084H6.60793C6.95571 9.56507 7.65131 8.75356 8.4338 8.08698L4.43427 8.08698C1.99977 8.08698 0 10.0867 0 12.5212C0 14.9557 1.99977 16.9555 4.43427 16.9555H12.0856C14.5201 16.9555 16.5198 14.9557 16.5198 12.5212C16.4329 12.2604 16.4329 11.9126 16.4329 11.9126Z" fill="black"/>
</svg>
