<?xml version="1.0" encoding="utf-8"?>
<!-- Generator: Adobe Illustrator 16.2.0, SVG Export Plug-In . SVG Version: 6.00 Build 0)  -->
<!DOCTYPE svg PUBLIC "-//W3C//DTD SVG 1.1//EN" "http://www.w3.org/Graphics/SVG/1.1/DTD/svg11.dtd">
<svg version="1.1" id="Слой_1" xmlns="http://www.w3.org/2000/svg" xmlns:xlink="http://www.w3.org/1999/xlink" x="0px" y="0px"
	 width="48px" height="15.938px" viewBox="0 0 48 15.938" enable-background="new 0 0 48 15.938" xml:space="preserve">
<path fill="#1B900F" d="M46,16H2c-1.103,0-2-0.897-2-2V2c0-1.103,0.897-2,2-2h44c1.103,0,2,0.897,2,2v12C48,15.103,47.103,16,46,16z
	 M2,1C1.449,1,1,1.449,1,2v12c0,0.552,0.449,1,1,1h44c0.552,0,1-0.448,1-1V2c0-0.551-0.448-1-1-1H2z"/>
<path fill="#1B900F" d="M5.505,3.574c-1.463,0-2.915,1.166-2.915,4.279c0,3.114,1.452,4.28,2.915,4.28
	c1.463,0,2.915-1.166,2.915-4.279S6.969,3.574,5.505,3.574z M4.339,7.853c0-0.737,0.077-2.761,1.166-2.761
	c1.089,0,1.166,2.024,1.166,2.761c0,0.66-0.077,2.761-1.166,2.761S4.339,8.513,4.339,7.853z M9.84,3.707l0,8.293h1.639l0-6.753
	h1.661V12h1.639V3.707H9.84z M21.431,3.707l-4.411,0V8.91c0,1.012-0.166,1.551-0.958,1.551H16.04V12h0.187
	c1.782,0,2.42-1.176,2.42-3.189V5.247h1.144l0,6.754h1.639L21.431,3.707z M24.573,3.707l-1.926,8.294h1.628l0.296-1.397h1.662
	l0.307,1.397h1.75L26.3,3.707H24.573z M25.992,9.306h-1.155l0.353-2.211l0.176-1.254h0.021l0.188,1.254L25.992,9.306z M30.779,8.503
	h0.639v3.498l1.639,0.001V3.707h-1.639v3.311H31.23c-0.979,0-1.056-0.374-1.056-1.562V3.718h-1.64v2.288
	C28.535,7.733,29.107,8.503,30.779,8.503z M34.771,3.708l-0.001,8.294h3.322v-1.541h-1.683v-1.87h1.463v-1.54h-1.463V5.248h1.661
	v-1.54H34.771z M39.628,3.708v8.294h1.639V8.493h1.661v3.509h1.639V3.708h-1.639v3.245h-1.66V3.708H39.628z"/>
</svg>
