<svg width="20" height="20" viewBox="0 0 20 20" fill="none" xmlns="http://www.w3.org/2000/svg">
<g clip-path="url(#clip0)">
<path fill-rule="evenodd" clip-rule="evenodd" d="M3.63633 8.18182H8.40906C8.40906 7.5 9.31815 6.59091 9.99997 6.36364H3.63633C3.40638 6.36364 3.18178 6.57663 3.18178 6.81818V7.72727C3.18178 7.96882 3.40638 8.18182 3.63633 8.18182ZM3.63633 9.54546H8.18178V11.3636H3.63633C3.40638 11.3636 3.18178 11.1506 3.18178 10.9091V10C3.18178 9.75845 3.40638 9.54546 3.63633 9.54546ZM13.6363 5.45455V1.81818C13.6363 0.68182 12.9545 0 11.8181 0H1.81815C0.681784 0 -3.43919e-05 0.681819 -3.43919e-05 1.81818V15.9091C-3.43919e-05 17.0455 0.681784 17.7273 1.81815 17.7273H8.18178V15.9091H1.81815V1.81818H11.8181V5.45455C12.1063 5.44984 12.3554 5.45508 12.5978 5.46017C12.9291 5.46713 13.2478 5.47382 13.6363 5.45455ZM3.18178 4.54545C3.18178 4.787 3.40638 5 3.63633 5L9.99997 5C10.2272 5 10.4545 4.77273 10.4545 4.54545V3.63636C10.4545 3.40909 10.2272 3.18182 9.99997 3.18182H3.63633C3.40638 3.18182 3.18178 3.40909 3.18178 3.63636V4.54545ZM3.63633 12.7273C3.40906 12.7273 3.18178 12.9545 3.18178 13.1818V14.0909C3.18178 14.3182 3.40906 14.5455 3.63633 14.5455H8.18178V12.7273H3.63633ZM9.09091 9.6244C9.09091 7.8235 11.5329 6.36353 14.5454 6.36353C17.558 6.36353 20 7.8235 20 9.6244V10.8102C20 12.6111 17.558 14.0711 14.5454 14.0711C11.5329 14.0711 9.09091 12.6111 9.09091 10.8102V9.6244ZM14.5454 12.1738C15.8705 12.1738 17.1056 11.8717 18.0232 11.3231C18.4898 11.0441 19.2727 10.4524 19.2727 9.6244C19.2727 8.79638 18.4898 8.20473 18.0232 7.9257C17.1056 7.3771 15.8705 7.07499 14.5454 7.07499C13.2204 7.07499 11.9853 7.3771 11.0677 7.92568C10.6011 8.2047 9.81818 8.79635 9.81818 9.62438C9.81818 10.4524 10.6011 11.0441 11.0677 11.3231C11.9853 11.8717 13.2204 12.1738 14.5454 12.1738ZM15.7576 10.5983H14.957V8.1422L13.2746 8.39631V8.91681L14.1023 8.78266V10.5983H13.2963V11.1066H15.7576V10.5983ZM19.9985 12.5477C19.998 12.5386 19.9974 12.5295 19.9972 12.5204C19.7277 12.874 19.3759 13.1955 18.9571 13.4761C18.6872 13.8457 18.3 14.122 18.0232 14.2876C17.1056 14.8361 15.8705 15.1382 14.5455 15.1382C13.2204 15.1382 11.9854 14.8361 11.0677 14.2876C10.791 14.122 10.4038 13.8457 10.1338 13.4761C9.71499 13.1954 9.3632 12.874 9.09377 12.5204C9.09349 12.5295 9.09298 12.5386 9.09247 12.5477C9.0917 12.5614 9.09094 12.575 9.09094 12.5888V13.7746C9.09094 15.5755 11.5329 17.0354 14.5455 17.0354C17.558 17.0354 20 15.5755 20 13.7746V12.5888C20 12.575 19.9992 12.5613 19.9985 12.5477ZM19.9985 15.5121C19.998 15.503 19.9974 15.4939 19.9972 15.4848C19.7277 15.8385 19.3759 16.1598 18.9571 16.4405C18.6872 16.8101 18.3 17.0864 18.0232 17.252C17.1056 17.8006 15.8705 18.1027 14.5455 18.1027C13.2204 18.1027 11.9854 17.8006 11.0677 17.252C10.791 17.0864 10.4038 16.8102 10.1338 16.4405C9.71499 16.1598 9.3632 15.8385 9.09377 15.4848C9.09349 15.4939 9.09298 15.503 9.09247 15.5122C9.0917 15.5258 9.09094 15.5395 9.09094 15.5532V16.739C9.09094 18.5399 11.5329 19.9999 14.5455 19.9999C17.558 19.9999 20 18.5399 20 16.739V15.5532C20 15.5395 19.9992 15.5258 19.9985 15.5121Z" fill="#EC5E00"/>
</g>
<defs>
<clipPath id="clip0">
<rect width="20" height="20" fill="white" transform="matrix(-1 0 0 1 20 0)"/>
</clipPath>
</defs>
</svg>
