<?xml version="1.0" encoding="utf-8"?>
<!-- Generator: Adobe Illustrator 16.2.0, SVG Export Plug-In . SVG Version: 6.00 Build 0)  -->
<!DOCTYPE svg PUBLIC "-//W3C//DTD SVG 1.1//EN" "http://www.w3.org/Graphics/SVG/1.1/DTD/svg11.dtd">
<svg version="1.1" id="Слой_1" xmlns="http://www.w3.org/2000/svg" xmlns:xlink="http://www.w3.org/1999/xlink" x="0px" y="0px"
	 width="419.527px" height="419.529px" viewBox="0 0 419.527 419.529" enable-background="new 0 0 419.527 419.529"
	 xml:space="preserve">
<path fill="#599699" d="M349.853,0.001H61.427c-21.714,0-39.331,17.617-39.331,39.331v340.866c0,21.714,17.617,39.331,39.331,39.331
	h288.425c21.715,0,39.33-17.617,39.33-39.331V39.332C389.183,17.618,371.567,0.001,349.853,0.001z M205.64,393.308
	c-14.503,0-26.221-11.717-26.221-26.221c0-14.503,11.718-26.221,26.221-26.221s26.222,11.718,26.222,26.221
	C231.861,381.591,220.143,393.308,205.64,393.308z M349.853,304.815c0,5.406-4.425,9.832-9.833,9.832H71.26
	c-5.407,0-9.832-4.426-9.832-9.832V49.164c0-5.407,4.425-9.832,9.832-9.832h268.76c5.408,0,9.834,4.425,9.834,9.832L349.853,304.815
	L349.853,304.815z"/>
</svg>
