<svg width="335" height="29" viewBox="0 0 335 29" fill="none" xmlns="http://www.w3.org/2000/svg">
<g clip-path="url(#clip0)">
<path fill-rule="evenodd" clip-rule="evenodd" d="M335.528 25.6131C336.149 26.6252 335.878 27.4039 334.868 27.4039H330.328C329.358 27.4039 328.037 26.6252 327.418 25.6131L324.196 20.5522C323.225 19.0337 321.829 17.438 319.384 17.438H314.764V25.6127C314.764 26.5856 313.989 27.4035 312.979 27.4035H309.409C308.439 27.4035 307.623 26.5856 307.623 25.6127V1.94576C307.623 0.933675 308.4 0.155916 309.369 0.155916H325.01C330.677 0.155916 334.907 3.42515 334.907 8.79606C334.907 13.0012 331.685 14.9479 327.765 15.7257C329.358 16.3092 330.521 17.6714 332.074 20.1237L335.528 25.6131ZM322.837 5.52728H314.764V12.0667H322.837C325.01 12.0667 327.766 11.2889 327.766 8.79651C327.766 6.30595 325.01 5.52728 322.837 5.52728ZM300.406 5.52728H283.912V11.0555H298.117C299.087 11.0555 299.902 11.8715 299.902 12.8453V14.6361C299.902 15.6099 299.087 16.4259 298.117 16.4259H283.912V22.0321H300.368C301.337 22.0321 302.114 22.8108 302.114 23.7836V25.6136C302.114 26.5865 301.337 27.4044 300.329 27.4044H278.556C277.547 27.4044 276.771 26.5865 276.771 25.5735V1.90792C276.771 0.934131 277.586 0.156372 278.556 0.156372H300.406C301.377 0.156372 302.191 0.934131 302.191 1.94622V3.73698C302.191 4.74861 301.377 5.52728 300.406 5.52728ZM258.415 27.5598H254.145C245.918 27.5598 241.144 23.2388 241.144 13.779C241.144 4.32098 245.918 0 255.194 0H259.424C264.702 0 270.33 2.8416 270.33 7.00667C270.33 8.75822 268.894 9.1088 268.389 9.1088H266.139C265.052 9.1088 264.236 8.56309 263.577 7.31804C262.879 5.99412 261.092 5.37228 258.764 5.37228H255.387C249.799 5.37228 248.284 7.43384 248.284 13.779C248.284 20.1242 249.799 22.188 254.339 22.188H258.22C262.49 22.188 263.886 20.3972 263.925 17.6719H259.657C258.686 17.6719 257.87 16.854 257.87 15.882V14.4027C257.87 13.4298 258.686 12.6119 259.657 12.6119H269.165C270.135 12.6119 270.95 13.4298 270.95 14.4027V16.5048C270.951 23.511 266.759 27.5598 258.415 27.5598ZM233.539 27.4035H229.969C228.959 27.4035 228.184 26.6248 228.184 25.6127V20.8253H214.716L213.435 25.6127C213.163 26.6248 212.193 27.4035 211.184 27.4035H207.458C206.45 27.4035 205.868 26.6248 206.139 25.6519L210.913 7.55192C212.504 1.51722 217.977 0.155916 223.487 0.155916H233.694C234.625 0.155916 235.325 0.972882 235.325 1.90747V25.6519C235.324 26.6248 234.509 27.4035 233.539 27.4035ZM228.184 5.52728H222.789C220.344 5.52728 218.404 7.00667 217.782 9.34176L216.113 15.4535H228.184V5.52728ZM199.233 27.4035H192.945C191.936 27.4035 190.811 26.5856 190.189 25.6127L179.711 9.30347V25.6127C179.711 26.5856 178.896 27.4035 177.925 27.4035H174.588C173.618 27.4035 172.803 26.5856 172.803 25.6127V1.94576C172.803 0.972882 173.578 0.155916 174.549 0.155916H180.138C181.069 0.155916 182.155 1.05084 182.738 1.94576L194.186 19.6186V1.90792C194.186 0.934131 195.002 0.156372 195.973 0.156372H199.233C200.241 0.156372 201.018 0.934131 201.018 1.94622V25.6136C201.017 26.5856 200.24 27.4035 199.233 27.4035ZM163.644 27.4035H160.074C159.064 27.4035 158.288 26.6248 158.288 25.6127V20.8253H144.822L143.54 25.6127C143.27 26.6248 142.299 27.4035 141.29 27.4035H137.564C136.555 27.4035 135.973 26.6248 136.244 25.6519L141.018 7.55192C142.609 1.51768 148.081 0.155916 153.591 0.155916H163.799C164.731 0.155916 165.43 0.972882 165.43 1.90747V25.6519C165.43 26.6248 164.614 27.4035 163.644 27.4035ZM158.288 5.52728H152.894C150.449 5.52728 148.508 7.00667 147.887 9.34176L146.218 15.4535H158.288V5.52728ZM129.338 27.4035H125.922C124.913 27.4035 124.137 26.5856 124.137 25.5726V7.00667L117.461 25.6911C117.112 26.6248 116.103 27.4035 115.132 27.4035H112.416C111.445 27.4035 110.437 26.6248 110.087 25.6911L103.411 7.00667V25.573C103.411 26.586 102.635 27.4039 101.626 27.4039H98.2109C97.2022 27.4039 96.4259 26.586 96.4259 25.573V1.98497C96.4259 0.973338 97.2022 0.156372 98.1722 0.156372H105.896C106.904 0.156372 107.875 0.973338 108.185 1.94622L113.774 18.1775L119.364 1.94622C119.674 0.973338 120.644 0.156372 121.653 0.156372H129.376C130.346 0.156372 131.123 0.973338 131.123 1.98497V25.573C131.122 26.5856 130.346 27.4035 129.338 27.4035ZM89.5972 5.52728H81.1363V25.6524C81.1363 26.6252 80.3213 27.4039 79.3513 27.4039H75.7799C74.8104 27.4039 73.9949 26.6252 73.9949 25.6524V5.52728H65.534C64.5245 5.52728 63.749 4.74861 63.749 3.73652V1.94576C63.749 0.933675 64.5249 0.155916 65.534 0.155916H89.5968C90.6049 0.155916 91.3818 0.933675 91.3818 1.94576V3.73652C91.3822 4.74861 90.6054 5.52728 89.5972 5.52728ZM58.8599 5.52728H42.3659V11.0555H56.5709C57.5409 11.0555 58.3559 11.8715 58.3559 12.8453V14.6361C58.3559 15.6099 57.5409 16.4259 56.5709 16.4259H42.3659V22.0321H58.8218C59.7913 22.0321 60.5681 22.8108 60.5681 23.7836V25.6136C60.5681 26.5865 59.7913 27.4044 58.7831 27.4044H37.0095C36.0013 27.4044 35.2245 26.5865 35.2245 25.5735V1.90792C35.2245 0.934131 36.04 0.156372 37.0095 0.156372H58.8599C59.8309 0.156372 60.645 0.934131 60.645 1.94622V3.73698C60.645 4.74861 59.8309 5.52728 58.8599 5.52728ZM19.1581 25.4568C18.6154 26.6252 17.8 27.4039 16.4422 27.4039H13.725C12.3668 27.4039 11.5518 26.6252 11.0086 25.4568L0.103591 1.75155C-0.284591 0.933675 0.490864 0.155916 1.3445 0.155916H5.49814C6.50677 0.155916 7.32223 0.972882 7.74905 1.94576L15.0845 18.3329L22.419 1.94576C22.845 0.972882 23.6604 0.155916 24.67 0.155916H28.8227C29.6763 0.155916 30.4531 0.933675 30.065 1.75155L19.1581 25.4568Z" fill="white"/>
<path fill-rule="evenodd" clip-rule="evenodd" d="M335.528 27.0533C336.149 28.0663 335.878 28.8441 334.868 28.8441H330.327C329.358 28.8441 328.037 28.0663 327.417 27.0533L324.196 21.9938C323.225 20.4752 321.828 18.8796 319.384 18.8796H314.764V27.0533C314.764 28.0271 313.988 28.8441 312.979 28.8441H309.409C308.438 28.8441 307.623 28.0271 307.623 27.0533V3.38732C307.623 2.37523 308.4 1.59656 309.369 1.59656H325.01C330.677 1.59656 334.907 4.8667 334.907 10.2385C334.907 14.4414 331.685 16.3886 327.765 17.1672C329.357 17.7508 330.521 19.1144 332.074 21.5653L335.528 27.0533ZM322.837 6.96838H314.764V13.5078H322.837C325.01 13.5078 327.766 12.7291 327.766 10.2385C327.766 7.74614 325.01 6.96838 322.837 6.96838ZM300.406 6.96838H283.911V12.4957H298.117C299.087 12.4957 299.902 13.3131 299.902 14.2873V16.0767C299.902 17.0496 299.087 17.8675 298.117 17.8675H283.911V23.4727H300.367C301.337 23.4727 302.114 24.2505 302.114 25.2243V27.0529C302.114 28.0267 301.337 28.8436 300.328 28.8436H278.556C277.547 28.8436 276.771 28.0267 276.771 27.015V3.34811C276.771 2.37523 277.586 1.59656 278.556 1.59656H300.406C301.377 1.59656 302.191 2.37523 302.191 3.38732V5.17808C302.191 6.18971 301.377 6.96838 300.406 6.96838ZM258.415 29H254.145C245.917 29 241.143 24.679 241.143 15.221C241.143 5.76117 245.917 1.4411 255.193 1.4411H259.424C264.702 1.4411 270.329 4.2827 270.329 8.44777C270.329 10.1993 268.893 10.5485 268.388 10.5485H266.138C265.051 10.5485 264.236 10.0042 263.576 8.75914C262.878 7.43477 261.092 6.81201 258.764 6.81201H255.387C249.798 6.81201 248.284 8.87585 248.284 15.221C248.284 21.5648 249.798 23.6277 254.338 23.6277H258.22C262.489 23.6277 263.886 21.837 263.925 19.1139H259.656C258.685 19.1139 257.87 18.296 257.87 17.3222V15.8438C257.87 14.8695 258.685 14.0521 259.656 14.0521H269.165C270.134 14.0521 270.95 14.8695 270.95 15.8438V17.9445C270.951 24.9512 266.759 29 258.415 29ZM233.538 28.8441H229.968C228.958 28.8441 228.183 28.0663 228.183 27.0533V22.266H214.716L213.435 27.0533C213.162 28.0663 212.193 28.8441 211.183 28.8441H207.458C206.45 28.8441 205.867 28.0663 206.139 27.0925L210.913 8.99256C212.503 2.95878 217.977 1.59656 223.487 1.59656H233.694C234.625 1.59656 235.325 2.41398 235.325 3.34811V27.0925C235.324 28.0663 234.509 28.8441 233.538 28.8441ZM228.183 6.96838H222.788C220.344 6.96838 218.403 8.44777 217.782 10.7829L216.112 16.8937H228.183V6.96838ZM199.232 28.8441H192.945C191.936 28.8441 190.811 28.0271 190.189 27.0533L179.711 10.7441V27.0533C179.711 28.0271 178.896 28.8441 177.925 28.8441H174.587C173.617 28.8441 172.802 28.0271 172.802 27.0533V3.38732C172.802 2.41444 173.577 1.59656 174.549 1.59656H180.137C181.069 1.59656 182.155 2.49149 182.738 3.38732L194.186 21.0597V3.34811C194.186 2.37523 195.002 1.59656 195.973 1.59656H199.233C200.241 1.59656 201.018 2.37523 201.018 3.38732V27.0533C201.017 28.0271 200.24 28.8441 199.232 28.8441ZM163.644 28.8441H160.073C159.064 28.8441 158.288 28.0663 158.288 27.0533V22.266H144.822L143.54 27.0533C143.269 28.0663 142.298 28.8441 141.29 28.8441H137.563C136.555 28.8441 135.972 28.0663 136.244 27.0925L141.017 8.99256C142.609 2.95878 148.081 1.59656 153.591 1.59656H163.798C164.731 1.59656 165.429 2.41398 165.429 3.34811V27.0925C165.429 28.0663 164.614 28.8441 163.644 28.8441ZM158.288 6.96838H152.893C150.449 6.96838 148.508 8.44777 147.887 10.7829L146.217 16.8937H158.288V6.96838ZM129.337 28.8441H125.922C124.912 28.8441 124.137 28.0271 124.137 27.0155V8.44777L117.461 27.1322C117.112 28.0659 116.103 28.8436 115.132 28.8436H112.416C111.445 28.8436 110.437 28.0659 110.087 27.1322L103.412 8.44777V27.015C103.412 28.0271 102.636 28.8436 101.627 28.8436H98.2111C97.2024 28.8436 96.4261 28.0267 96.4261 27.015V3.42607C96.4261 2.41398 97.2024 1.59656 98.1724 1.59656H105.897C106.905 1.59656 107.876 2.41398 108.186 3.38732L113.775 19.6195L119.363 3.38732C119.673 2.41444 120.643 1.59656 121.652 1.59656H129.376C130.345 1.59656 131.122 2.41398 131.122 3.42607V27.015C131.122 28.0271 130.346 28.8441 129.337 28.8441ZM89.597 6.96838H81.1361V27.0925C81.1361 28.0663 80.3211 28.8441 79.3511 28.8441H75.7797C74.8102 28.8441 73.9947 28.0663 73.9947 27.0925V6.96838H65.5338C64.5242 6.96838 63.7488 6.18971 63.7488 5.17762V3.38732C63.7488 2.37523 64.5247 1.59656 65.5338 1.59656H89.5965C90.6047 1.59656 91.3815 2.37523 91.3815 3.38732V5.17808C91.382 6.18971 90.6052 6.96838 89.597 6.96838ZM58.8597 6.96838H42.3656V12.4957H56.5706C57.5406 12.4957 58.3556 13.3131 58.3556 14.2873V16.0767C58.3556 17.0496 57.5406 17.8675 56.5706 17.8675H42.3656V23.4727H58.8215C59.7911 23.4727 60.5679 24.2505 60.5679 25.2243V27.0529C60.5679 28.0267 59.7911 28.8436 58.7829 28.8436H37.0093C36.0011 28.8436 35.2243 28.0267 35.2243 27.015V3.34811C35.2243 2.37523 36.0397 1.59656 37.0093 1.59656H58.8597C59.8306 1.59656 60.6447 2.37523 60.6447 3.38732V5.17808C60.6447 6.18971 59.8306 6.96838 58.8597 6.96838ZM19.1579 26.8979C18.6152 28.0663 17.7997 28.8436 16.442 28.8436H13.7247C12.3665 28.8436 11.5515 28.0659 11.0083 26.8979L0.103347 3.19311C-0.284835 2.37523 0.490619 1.59656 1.34426 1.59656H5.49789C6.50653 1.59656 7.32198 2.41398 7.7488 3.38732L15.0843 19.7759L22.4188 3.38732C22.8447 2.41444 23.6602 1.59656 24.6697 1.59656H28.8224C29.6761 1.59656 30.4529 2.37523 30.0647 3.19311L19.1579 26.8979Z" fill="#236D9E"/>
</g>
<defs>
<clipPath id="clip0">
<rect width="335" height="29" fill="white"/>
</clipPath>
</defs>
</svg>
