<svg width="24" height="24" viewBox="0 0 24 24" fill="none" xmlns="http://www.w3.org/2000/svg">
<g clip-path="url(#clip0)">
<path d="M11.555 24.0118L6.34203 23.8968C-2.27097 13.9688 0.387033 4.94879 0.387033 4.94879L4.30903 1.31479L7.70503 1.41279L8.03203 6.96179L5.66403 7.42979L3.17203 8.77079L7.13003 18.7618L8.85003 18.1718L11.043 17.0028L14.085 21.8858L11.555 24.0118ZM20.811 18.8188L18.657 17.4628C19.796 15.6998 20.464 13.6108 20.464 11.3648C20.464 7.51179 18.519 4.11279 15.554 2.05679L17.019 -0.012207C20.644 2.50179 23.019 6.65679 23.019 11.3648C23.018 14.1098 22.201 16.6628 20.811 18.8188ZM17.906 11.3648C17.906 13.1118 17.377 14.7298 16.492 16.1018L14.342 14.7478C14.973 13.7688 15.352 12.6118 15.352 11.3638C15.352 9.22279 14.268 7.33879 12.622 6.19579L14.085 4.13179C16.391 5.72979 17.906 8.36879 17.906 11.3648ZM12.189 13.3948L10.02 12.0318C10.148 11.8348 10.241 11.6158 10.241 11.3658C10.241 10.9378 10.012 10.5788 9.68103 10.3498L11.157 8.26579C12.145 8.95079 12.797 10.0798 12.797 11.3658C12.797 12.1138 12.568 12.8078 12.189 13.3948Z" fill="#1B900F"/>
</g>
<defs>
<clipPath id="clip0">
<rect width="24" height="24" fill="white"/>
</clipPath>
</defs>
</svg>
