<svg width="16" height="16" viewBox="0 0 16 16" fill="none" xmlns="http://www.w3.org/2000/svg">
<!-- <rect width="15" height="15" rx="1" fill="#E8F2FF"/> -->
<path d="M7.20711 4.70711C7.59763 4.31658 7.59763 3.68342 7.20711 3.29289C6.81658 2.90237 6.18342 2.90237 5.79289 3.29289L7.20711 4.70711ZM3 7.5L2.29289 6.79289C1.90237 7.18342 1.90237 7.81658 2.29289 8.20711L3 7.5ZM5.79289 11.7071C6.18342 12.0976 6.81658 12.0976 7.20711 11.7071C7.59763 11.3166 7.59763 10.6834 7.20711 10.2929L5.79289 11.7071ZM5.79289 3.29289L2.29289 6.79289L3.70711 8.20711L7.20711 4.70711L5.79289 3.29289ZM2.29289 8.20711L5.79289 11.7071L7.20711 10.2929L3.70711 6.79289L2.29289 8.20711Z" fill="#416AA3"/>
<path d="M11.7071 4.70711C12.0976 4.31658 12.0976 3.68342 11.7071 3.29289C11.3166 2.90237 10.6834 2.90237 10.2929 3.29289L11.7071 4.70711ZM7.5 7.5L6.79289 6.79289C6.40237 7.18342 6.40237 7.81658 6.79289 8.20711L7.5 7.5ZM10.2929 11.7071C10.6834 12.0976 11.3166 12.0976 11.7071 11.7071C12.0976 11.3166 12.0976 10.6834 11.7071 10.2929L10.2929 11.7071ZM10.2929 3.29289L6.79289 6.79289L8.20711 8.20711L11.7071 4.70711L10.2929 3.29289ZM6.79289 8.20711L10.2929 11.7071L11.7071 10.2929L8.20711 6.79289L6.79289 8.20711Z" fill="#416AA3"/>
</svg>
