<svg width="16" height="16" viewBox="0 0 16 16" fill="none" xmlns="http://www.w3.org/2000/svg">
<path d="M0.259652 6.68237L5.75978 1.93284C6.24122 1.51706 7 1.85459 7 2.50047C7 13.1637 7 10.5868 7 12C7 12.6469 6.24062 12.9829 5.75978 12.5676L0.259652 7.81762C-0.0863164 7.51881 -0.0867852 6.98159 0.259652 6.68237Z" fill="#416AA3"/>
<path d="M6.78784 8.60714H15.5714C15.8081 8.60714 16 8.41525 16 8.17857V6.17857C16 5.94189 15.8081 5.75 15.5714 5.75H6.78784C6.78784 6.75 6.78796 7.74981 6.78784 8.60714Z" fill="#416AA3"/>
<path d="M13.1429 6.74992V12.3214C13.1429 12.558 13.3348 12.7499 13.5715 12.7499H15.5715C15.8081 12.7499 16 12.558 16 12.3214V6.74992C15 6.74992 14.0002 6.75005 13.1429 6.74992Z" fill="#416AA3"/>
</svg>
