<svg width="16" height="16" viewBox="0 0 16 16" fill="none" xmlns="http://www.w3.org/2000/svg">
<path d="M9 4.25V0H2.75C2.33437 0 2 0.334375 2 0.75V15.25C2 15.6656 2.33437 16 2.75 16H13.25C13.6656 16 14 15.6656 14 15.25V5H9.75C9.3375 5 9 4.6625 9 4.25ZM10.8781 7.57812L9 10.5L10.8781 13.4219C11.0375 13.6719 10.8594 14 10.5625 14H9.47188C9.33438 14 9.20625 13.925 9.14062 13.8031C8.52812 12.6719 8 11.6562 8 11.6562C7.8 12.1187 7.6875 12.2812 6.85625 13.8062C6.79062 13.9281 6.66562 14.0031 6.52812 14.0031H5.4375C5.14062 14.0031 4.9625 13.675 5.12188 13.425L7.00625 10.5031L5.12188 7.58125C4.95938 7.33125 5.14062 7.00313 5.4375 7.00313H6.525C6.6625 7.00313 6.79062 7.07812 6.85625 7.2C7.67188 8.725 7.48125 8.25 8 9.34062C8 9.34062 8.19063 8.975 9.14375 7.2C9.20938 7.07812 9.3375 7.00313 9.475 7.00313H10.5625C10.8594 7 11.0375 7.32812 10.8781 7.57812ZM14 3.80938V4H10V0H10.1906C10.3906 0 10.5813 0.078125 10.7219 0.21875L13.7812 3.28125C13.9219 3.42188 14 3.6125 14 3.80938Z" fill="#1B900F"/>
</svg>
