<svg width="16" height="16" viewBox="0 0 16 16" fill="none" xmlns="http://www.w3.org/2000/svg">
<path fill-rule="evenodd" clip-rule="evenodd" d="M3 1.5C3 0.671573 3.67157 0 4.5 0H11.5C12.3284 0 13 0.671573 13 1.5V14.5C13 15.3284 12.3284 16 11.5 16H4.5C3.67157 16 3 15.3284 3 14.5V1.5ZM5 3C5 2.44772 5.44772 2 6 2H10C10.5523 2 11 2.44772 11 3V12C11 12.5523 10.5523 13 10 13H6C5.44772 13 5 12.5523 5 12V3ZM7.5 14C7.22386 14 7 14.2239 7 14.5C7 14.7761 7.22386 15 7.5 15H8.5C8.77614 15 9 14.7761 9 14.5C9 14.2239 8.77614 14 8.5 14H7.5Z" fill="#416AA3"/>
</svg>
