<svg width="16" height="16" viewBox="0 0 16 16" fill="none" xmlns="http://www.w3.org/2000/svg">
<path d="M14.6639 2H1.33611C0.597222 2 0 2.59722 0 3.33333V13.1111C0 13.8472 0.597222 14.4444 1.33611 14.4444H14.6639C15.4028 14.4444 16 13.8472 16 13.1111V3.33333C16 2.59722 15.4028 2 14.6639 2ZM1.50278 3.33333H14.4972C14.5889 3.33333 14.6639 3.40833 14.6639 3.5V4.66667H1.33611V3.5C1.33611 3.40833 1.41111 3.33333 1.50278 3.33333ZM14.4972 13.1111H1.50278C1.41111 13.1111 1.33611 13.0361 1.33611 12.9444V8.22222H14.6639V12.9444C14.6639 13.0361 14.5889 13.1111 14.4972 13.1111ZM5.33333 10.3333V11.4444C5.33333 11.6278 5.18333 11.7778 5 11.7778H3C2.81667 11.7778 2.66667 11.6278 2.66667 11.4444V10.3333C2.66667 10.15 2.81667 10 3 10H5C5.18333 10 5.33333 10.15 5.33333 10.3333ZM10.6667 10.3333V11.4444C10.6667 11.6278 10.5167 11.7778 10.3333 11.7778H6.55556C6.37222 11.7778 6.22222 11.6278 6.22222 11.4444V10.3333C6.22222 10.15 6.37222 10 6.55556 10H10.3333C10.5167 10 10.6667 10.15 10.6667 10.3333Z" fill="#416AA3"/>
</svg>
