<?xml version="1.0" encoding="utf-8"?>
<!-- Generator: Adobe Illustrator 24.0.2, SVG Export Plug-In . SVG Version: 6.00 Build 0)  -->
<svg version="1.1" id="Слой_1" xmlns="http://www.w3.org/2000/svg" xmlns:xlink="http://www.w3.org/1999/xlink" x="0px" y="0px"
	 viewBox="0 0 20 20" style="enable-background:new 0 0 20 20;" xml:space="preserve">
<style type="text/css">
	.st0{fill-rule:evenodd;clip-rule:evenodd;fill:#416AA3;}
</style>
<path class="st0" d="M8,7c2.2,0,4,1,4,3s-1.8,3-4,3c-2.2,0-4-1-4-3S5.8,7,8,7z M8,9c0.8,0,1.4,0.2,1.7,0.4c0.1,0.1,0.2,0.2,0.2,0.2
	C10,9.7,10,9.8,10,10c0,0.2,0,0.3-0.1,0.4c0,0.1-0.1,0.2-0.2,0.2C9.4,10.8,8.8,11,8,11s-1.4-0.2-1.7-0.4c-0.1-0.1-0.2-0.2-0.2-0.2
	C6,10.3,6,10.2,6,10c0-0.2,0-0.3,0.1-0.4c0-0.1,0.1-0.2,0.2-0.2C6.6,9.2,7.2,9,8,9z M8,15.4c-0.8,0-1.6-0.1-2.2-0.4l0.4-0.9
	c0.4,0.2,1.1,0.3,1.8,0.3c0.7,0,1.4-0.1,1.8-0.3l0.4,0.9C9.6,15.2,8.8,15.4,8,15.4z M8,5.6c-0.7,0-1.4,0.1-1.8,0.3L5.8,5.1
	C6.4,4.8,7.2,4.6,8,4.6s1.6,0.1,2.2,0.4L9.8,5.9C9.4,5.7,8.7,5.6,8,5.6z M2,20c-0.6,0-1-0.4-1-1V1c0-0.6,0.4-1,1-1h12
	c0.6,0,1,0.4,1,1v18c0,0.6-0.4,1-1,1H2z M4.4,18H3v-1.4c0.4,0.1,0.7,0.3,0.9,0.5C4.1,17.3,4.3,17.6,4.4,18z M5.4,18
	c-0.1-0.6-0.4-1.2-0.8-1.6c-0.4-0.4-1-0.7-1.6-0.8V4.4C3.6,4.3,4.2,4,4.6,3.6C5,3.2,5.3,2.6,5.4,2h5.2c0.1,0.6,0.4,1.2,0.8,1.6
	c0.4,0.4,1,0.7,1.6,0.8v11.2c-0.6,0.1-1.2,0.4-1.6,0.8c-0.4,0.4-0.7,1-0.8,1.6H5.4z M12.1,2.9c-0.2-0.2-0.4-0.5-0.5-0.9H13v1.4
	C12.6,3.3,12.3,3.1,12.1,2.9z M12.1,17.1c0.2-0.2,0.5-0.4,0.9-0.5V18h-1.4C11.7,17.6,11.9,17.3,12.1,17.1z M4.4,2
	C4.3,2.4,4.1,2.7,3.9,2.9C3.7,3.1,3.4,3.3,3,3.4V2H4.4z M16,18.5c0,0.3,0.2,0.5,0.5,0.5s0.5-0.2,0.5-0.5v-17C17,1.2,16.8,1,16.5,1
	S16,1.2,16,1.5V18.5z M18,16.5c0,0.3,0.2,0.5,0.5,0.5s0.5-0.2,0.5-0.5v-13C19,3.2,18.8,3,18.5,3S18,3.2,18,3.5V16.5z"/>
</svg>
