<?xml version="1.0" encoding="utf-8"?>
<!-- Generator: Adobe Illustrator 24.0.2, SVG Export Plug-In . SVG Version: 6.00 Build 0)  -->
<svg version="1.1" id="Слой_1" xmlns="http://www.w3.org/2000/svg" xmlns:xlink="http://www.w3.org/1999/xlink" x="0px" y="0px"
	 viewBox="0 0 20 20" style="enable-background:new 0 0 20 20;" xml:space="preserve">
<style type="text/css">
	.st0{fill:#416AA3;}
</style>
<path class="st0" d="M4,16.5C4,16.2,4.2,16,4.5,16h7c0.3,0,0.5,0.2,0.5,0.5S11.8,17,11.5,17h-7C4.2,17,4,16.8,4,16.5z M20,14v3
	c0,1.7-1.3,3-3,3H3c-1.7,0-3-1.3-3-3v-3c0-0.1,0-0.2,0-0.3l2-7C2.2,6.3,2.6,6,3,6h4V5H3.5C2.7,5,2,4.3,2,3.5v-2C2,0.7,2.7,0,3.5,0h9
	C13.3,0,14,0.7,14,1.5v2C14,4.3,13.3,5,12.5,5H9v1h5.7L13,8H3.8l-1.4,5h17.4l0.2,0.7C20,13.8,20,13.9,20,14z M12,3V2H4v1H12z M18,15
	H2v2c0,0.6,0.4,1,1,1h14c0.6,0,1-0.4,1-1V15z M4.5,9.5C4.5,9.2,4.7,9,5,9h2c0.3,0,0.5,0.2,0.5,0.5S7.3,10,7,10H5
	C4.7,10,4.5,9.8,4.5,9.5z M8.5,9.5C8.5,9.2,8.7,9,9,9h2c0.3,0,0.5,0.2,0.5,0.5S11.3,10,11,10H9C8.7,10,8.5,9.8,8.5,9.5z M4.5,11
	C4.2,11,4,11.2,4,11.5S4.2,12,4.5,12h2C6.8,12,7,11.8,7,11.5S6.8,11,6.5,11H4.5z M8,11.5C8,11.2,8.2,11,8.5,11h3
	c0.3,0,0.5,0.2,0.5,0.5S11.8,12,11.5,12h-3C8.2,12,8,11.8,8,11.5z M18.5,4c0-0.1-0.1-0.3-0.3-0.3h-1.8c-0.4,0-0.8-0.3-0.8-0.8
	s0.3-0.8,0.8-0.8h1.8C19.2,2.3,20,3,20,4v4c0,1-0.8,1.8-1.8,1.8h-1.1l0.5,0.5c0.4,0.4,0.4,1,0,1.4c-0.4,0.4-1,0.4-1.4,0l-2-2
	c-0.4-0.4-0.4-1,0-1.4l2-2c0.4-0.4,1-0.4,1.4,0c0.4,0.4,0.4,1,0,1.4l-0.5,0.5h1.1c0.1,0,0.3-0.1,0.3-0.3V4z"/>
</svg>
