<svg width="17" height="16" viewBox="0 0 17 16" fill="none" xmlns="http://www.w3.org/2000/svg">
<path fill-rule="evenodd" clip-rule="evenodd" d="M0 3.0615C0 3.65717 0.170351 4.21311 0.465057 4.68337C1.2742 3.98865 4.00754 1.65737 5.14602 0.812704C4.59947 0.308246 3.86864 0 3.06572 0C1.37257 0 0 1.37068 0 3.0615ZM8.02926 15.9998C9.59946 15.9998 11.049 15.4841 12.2174 14.613L13.1313 15.5256C13.5262 15.92 14.1666 15.92 14.5615 15.5256C14.9565 15.1312 14.9565 14.4918 14.5615 14.0974L13.6476 13.1848C14.5201 12.018 15.0366 10.5703 15.0366 9.0021C15.0366 5.13736 11.8993 2.00437 8.02926 2.00437C4.15921 2.00437 1.02191 5.13736 1.02191 9.0021C1.02191 10.5757 1.54201 12.0279 2.41991 13.1968L1.51807 14.0974C1.12313 14.4918 1.12313 15.1312 1.51807 15.5256C1.91301 15.92 2.55334 15.92 2.94828 15.5256L3.85322 14.622C5.01947 15.4876 6.46447 15.9998 8.02926 15.9998ZM15.5935 4.68337C15.8882 4.21311 16.0585 3.65717 16.0585 3.0615C16.0585 1.37068 14.6859 0 12.9928 0C12.1899 0 11.459 0.308246 10.9125 0.812704C12.051 1.65737 14.7843 3.98865 15.5935 4.68337ZM7.04385 6.01496C7.04385 5.47074 7.48503 5.02956 8.02926 5.02956C8.57349 5.02956 9.01467 5.47074 9.01467 6.01496V9.04473L10.3671 10.1364C10.7905 10.4782 10.8562 11.0981 10.5138 11.5211C10.1715 11.9441 9.5507 12.0099 9.12728 11.6681L7.7418 10.5497C7.50871 10.3616 7.38403 10.0891 7.37613 9.81165C7.17232 9.63111 7.04385 9.36744 7.04385 9.07376V6.01496Z" fill="#416AA3"/>
</svg>
