<?xml version="1.0" encoding="utf-8"?>
<!-- Generator: Adobe Illustrator 24.0.2, SVG Export Plug-In . SVG Version: 6.00 Build 0)  -->
<svg version="1.1" id="Слой_1" xmlns="http://www.w3.org/2000/svg" xmlns:xlink="http://www.w3.org/1999/xlink" x="0px" y="0px"
	 viewBox="0 0 20 20" style="enable-background:new 0 0 20 20;" xml:space="preserve">
<style type="text/css">
	.st0{fill-rule:evenodd;clip-rule:evenodd;fill:#416AA3;}
</style>
<path class="st0" d="M0,14v3c0,1.7,1.3,3,3,3h9v-2H3c-0.6,0-1-0.4-1-1v-2h10v-2H2.3l1.4-5h12.5l0.6,2h2.1L18,6.7
	C17.8,6.3,17.4,6,17,6H9V5h3.5C13.3,5,14,4.3,14,3.5v-2C14,0.7,13.3,0,12.5,0h-9C2.7,0,2,0.7,2,1.5v2C2,4.3,2.7,5,3.5,5H7v1H3
	C2.6,6,2.2,6.3,2,6.7l-2,7C0,13.8,0,13.9,0,14z M4,2v1h8V2H4z M15,10c0.3,0,0.5-0.2,0.5-0.5S15.3,9,15,9h-2c-0.3,0-0.5,0.2-0.5,0.5
	S12.7,10,13,10H15z M12,11.5c0-0.3-0.2-0.5-0.5-0.5h-3C8.2,11,8,11.2,8,11.5S8.2,12,8.5,12h3C11.8,12,12,11.8,12,11.5z M12,16.5
	c0-0.3-0.2-0.5-0.5-0.5h-7C4.2,16,4,16.2,4,16.5S4.2,17,4.5,17h7C11.8,17,12,16.8,12,16.5z M5,9C4.7,9,4.5,9.2,4.5,9.5S4.7,10,5,10
	h2c0.3,0,0.5-0.2,0.5-0.5S7.3,9,7,9H5z M9,9C8.7,9,8.5,9.2,8.5,9.5S8.7,10,9,10h2c0.3,0,0.5-0.2,0.5-0.5S11.3,9,11,9H9z M4.5,11
	C4.2,11,4,11.2,4,11.5S4.2,12,4.5,12h2C6.8,12,7,11.8,7,11.5S6.8,11,6.5,11H4.5z M16.5,11.3c-0.9,0-1.6,0.4-2,1.2
	c-0.2,0.5-0.3,1-0.3,1.6H14c-0.6,0-1,0.4-1,1v4c0,0.6,0.4,1,1,1h5c0.6,0,1-0.4,1-1v-4c0-0.6-0.4-1-1-1h-0.2c0-0.5,0-1.1-0.3-1.6
	C18.1,11.6,17.4,11.3,16.5,11.3z M17.3,14c0-0.4,0-0.7-0.1-0.9c-0.1-0.3-0.4-0.3-0.6-0.3c-0.3,0-0.5,0.1-0.6,0.3
	c-0.1,0.2-0.1,0.6-0.1,0.9H17.3z"/>
</svg>
