<svg width="24" height="24" viewBox="0 0 24 24" fill="none" xmlns="http://www.w3.org/2000/svg">
<path fill-rule="evenodd" clip-rule="evenodd" d="M18.75 23.999H5.25C2.35 23.999 0 21.649 0 18.75V5.25C0 2.351 2.35 0 5.25 0H18.75C21.649 0 23.999 2.35 23.999 5.249V18.749C23.999 21.649 21.649 23.999 18.75 23.999ZM22.125 6C22.125 3.723 20.277 1.875 18 1.875H6C3.723 1.875 1.875 3.723 1.875 6V18C1.875 20.277 3.723 22.125 6 22.125H18C20.277 22.125 22.125 20.277 22.125 18V6ZM18 21H6C4.342 21 3 19.657 3 18V6C3 4.343 4.343 3 6 3H18C19.657 3 21 4.343 21 6V18C21 19.657 19.657 21 18 21ZM15.512 9.693C14.691 9.033 10.646 6.111 10.023 5.629C9.079 4.899 7.131 5.213 7.131 6.771C7.131 8.328 7.148 15.654 7.148 17.257C7.148 18.86 9.12 19.036 10.096 18.422C10.67 18.063 14.786 14.811 15.506 14.291C16.226 13.772 17.243 13.058 17.243 11.972C17.244 10.887 16.334 10.353 15.512 9.693Z" fill="#599699"/>
</svg>
