<svg width="24" height="24" viewBox="0 0 24 24" fill="none" xmlns="http://www.w3.org/2000/svg">
<path fill-rule="evenodd" clip-rule="evenodd" d="M20.5096 19.8199L17.0986 23.4763C16.4472 24.1746 15.3886 24.1746 14.7372 23.4763C14.4346 23.1539 14.2793 22.7354 14.2568 22.3136L14.2478 22.3245V20.7618H5.25002C4.00801 20.7618 3 19.7838 3 18.5785C3 17.3688 4.00801 16.3908 5.25002 16.3908H14.2478V15.0204L14.2602 15.0357C14.2253 14.5341 14.3806 14.0194 14.7383 13.6381C15.3897 12.9376 16.4484 12.9376 17.0997 13.6381L20.5108 17.2923C21.1633 17.9884 21.1633 19.1227 20.5096 19.8199ZM17.6251 7.64967H9.75343V9.21125L9.74443 9.20032C9.72193 9.62213 9.56668 10.0396 9.26517 10.3619C8.61267 11.0602 7.55516 11.0602 6.90266 10.3619L3.49275 6.70771C2.84025 6.00833 2.84025 4.87731 3.49275 4.17903L6.90378 0.523711C7.55629 -0.17457 8.61379 -0.17457 9.2663 0.523711C9.62293 0.906181 9.7793 1.42088 9.74443 1.92137L9.7568 1.90825V3.2775H17.6274C18.8716 3.2775 19.8796 4.25662 19.8796 5.46413C19.8774 6.67055 18.8694 7.64967 17.6251 7.64967Z" fill="#1B900F"/>
</svg>
