<svg width="16" height="16" viewBox="0 0 16 16" fill="none" xmlns="http://www.w3.org/2000/svg">
<path d="M5.625 9H4.375C4.16875 9 4 8.83125 4 8.625V7.375C4 7.16875 4.16875 7 4.375 7H5.625C5.83125 7 6 7.16875 6 7.375V8.625C6 8.83125 5.83125 9 5.625 9ZM9 8.625V7.375C9 7.16875 8.83125 7 8.625 7H7.375C7.16875 7 7 7.16875 7 7.375V8.625C7 8.83125 7.16875 9 7.375 9H8.625C8.83125 9 9 8.83125 9 8.625ZM12 8.625V7.375C12 7.16875 11.8313 7 11.625 7H10.375C10.1687 7 10 7.16875 10 7.375V8.625C10 8.83125 10.1687 9 10.375 9H11.625C11.8313 9 12 8.83125 12 8.625ZM9 11.625V10.375C9 10.1687 8.83125 10 8.625 10H7.375C7.16875 10 7 10.1687 7 10.375V11.625C7 11.8313 7.16875 12 7.375 12H8.625C8.83125 12 9 11.8313 9 11.625ZM6 11.625V10.375C6 10.1687 5.83125 10 5.625 10H4.375C4.16875 10 4 10.1687 4 10.375V11.625C4 11.8313 4.16875 12 4.375 12H5.625C5.83125 12 6 11.8313 6 11.625ZM12 11.625V10.375C12 10.1687 11.8313 10 11.625 10H10.375C10.1687 10 10 10.1687 10 10.375V11.625C10 11.8313 10.1687 12 10.375 12H11.625C11.8313 12 12 11.8313 12 11.625ZM15 3.5V14.5C15 15.3281 14.3281 16 13.5 16H2.5C1.67188 16 1 15.3281 1 14.5V3.5C1 2.67188 1.67188 2 2.5 2H4C4 2 4 1.5 4 1C4 0.5 4.5 0 5 0C5.5 0 6 0.5 6 1C6 1.5 6 2 6 2H10C10 2 10 1.5 10 1C10 0.5 10.375 0 11 0C11.625 0 12 0.5 12 1C12 1.5 12 2 12 2H13.5C14.3281 2 15 2.67188 15 3.5ZM13 13C13 12.5 13 5 13 5H3C3 5 3 12.5 3 13C3 13.5 3 14 3.5 14C4 14 12 14 12.5 14C13 14 13 13.5 13 13Z" fill="#416AA3"/>
</svg>
