<svg width="16" height="16" viewBox="0 0 16 16" fill="none" xmlns="http://www.w3.org/2000/svg">
<path d="M10.2745 8L13.686 4.58852C14.1047 4.16989 14.1047 3.49114 13.686 3.07216L12.9278 2.31398C12.5092 1.89534 11.8305 1.89534 11.4115 2.31398L8 5.72545L4.58852 2.31398C4.16989 1.89534 3.49114 1.89534 3.07216 2.31398L2.31398 3.07216C1.89534 3.4908 1.89534 4.16955 2.31398 4.58852L5.72545 8L2.31398 11.4115C1.89534 11.8301 1.89534 12.5089 2.31398 12.9278L3.07216 13.686C3.4908 14.1047 4.16989 14.1047 4.58852 13.686L8 10.2745L11.4115 13.686C11.8301 14.1047 12.5092 14.1047 12.9278 13.686L13.686 12.9278C14.1047 12.5092 14.1047 11.8305 13.686 11.4115L10.2745 8Z" fill="#E12119"/>
</svg>
