<svg width="18" height="18" viewBox="0 0 24 24" fill="none" xmlns="http://www.w3.org/2000/svg">
<path d="M9.16667 7.3125V2H1.875C1.3901 2 1 2.41797 1 2.9375V21.0625C1 21.582 1.3901 22 1.875 22H14.125C14.6099 22 15 21.582 15 21.0625V20.5H13.5C12.3954 20.5 11.5 19.6046 11.5 18.5V16.5C11.5 15.3954 12.3954 14.5 13.5 14.5H15V8.25H10.0417C9.56042 8.25 9.16667 7.82812 9.16667 7.3125Z" fill="#1B900F"/>
<path d="M15 6.76172V7H10.3333V2H10.5557C10.7891 2 11.0115 2.09766 11.1755 2.27344L14.7448 6.10156C14.9089 6.27734 15 6.51562 15 6.76172Z" fill="#1B900F"/>
<path d="M18 13C18.5523 13 19 13.4477 19 14V16H21C21.5523 16 22 16.4477 22 17V18C22 18.5523 21.5523 19 21 19H19V21C19 21.5523 18.5523 22 18 22H17C16.4477 22 16 21.5523 16 21V19H14C13.4477 19 13 18.5523 13 18V17C13 16.4477 13.4477 16 14 16H16V14C16 13.4477 16.4477 13 17 13H18Z" fill="#1B900F"/>
</svg>
