<svg width="18" height="16" viewBox="0 0 22 20" fill="none" xmlns="http://www.w3.org/2000/svg">
<path d="M8.16667 5.3125V0H0.875C0.390104 0 0 0.417969 0 0.9375V19.0625C0 19.582 0.390104 20 0.875 20H13.125C13.6099 20 14 19.582 14 19.0625V17.5H10.5C9.39543 17.5 8.5 16.6046 8.5 15.5V13.5C8.5 12.3954 9.39543 11.5 10.5 11.5H14V6.25H9.04167C8.56042 6.25 8.16667 5.82812 8.16667 5.3125Z" fill="#416AA3"/>
<path d="M14 4.76172V5H9.33333V0H9.55573C9.78906 0 10.0115 0.0976562 10.1755 0.273438L13.7448 4.10156C13.9089 4.27734 14 4.51562 14 4.76172Z" fill="#416AA3"/>
<path d="M11 13C10.4477 13 10 13.4477 10 14V15C10 15.5523 10.4477 16 11 16H17V19.5L22 14.5L17 9.5V13H11Z" fill="#416AA3"/>
</svg>
