<svg width="20" height="20" viewBox="0 0 20 20" fill="none" xmlns="http://www.w3.org/2000/svg">
<mask id="path-1-inside-1" fill="white">
<path fill-rule="evenodd" clip-rule="evenodd" d="M10 20C15.5228 20 20 15.5228 20 10C20 4.47715 15.5228 0 10 0C4.47715 0 0 4.47715 0 10C0 15.5228 4.47715 20 10 20ZM10 15C12.7614 15 15 12.7614 15 10C15 7.23858 12.7614 5 10 5C7.23858 5 5 7.23858 5 10C5 12.7614 7.23858 15 10 15Z"/>
</mask>
<path fill-rule="evenodd" clip-rule="evenodd" d="M10 20C15.5228 20 20 15.5228 20 10C20 4.47715 15.5228 0 10 0C4.47715 0 0 4.47715 0 10C0 15.5228 4.47715 20 10 20ZM10 15C12.7614 15 15 12.7614 15 10C15 7.23858 12.7614 5 10 5C7.23858 5 5 7.23858 5 10C5 12.7614 7.23858 15 10 15Z" fill="white"/>
<path d="M19 10C19 14.9706 14.9706 19 10 19V21C16.0751 21 21 16.0751 21 10H19ZM10 1C14.9706 1 19 5.02944 19 10H21C21 3.92487 16.0751 -1 10 -1V1ZM1 10C1 5.02944 5.02944 1 10 1V-1C3.92487 -1 -1 3.92487 -1 10H1ZM10 19C5.02944 19 1 14.9706 1 10H-1C-1 16.0751 3.92487 21 10 21V19ZM14 10C14 12.2091 12.2091 14 10 14V16C13.3137 16 16 13.3137 16 10H14ZM10 6C12.2091 6 14 7.79086 14 10H16C16 6.68629 13.3137 4 10 4V6ZM6 10C6 7.79086 7.79086 6 10 6V4C6.68629 4 4 6.68629 4 10H6ZM10 14C7.79086 14 6 12.2091 6 10H4C4 13.3137 6.68629 16 10 16V14Z" fill="#8D8D8D" mask="url(#path-1-inside-1)"/>
<rect x="7.5" y="0.5" width="5" height="5" rx="0.5" fill="url(#paint0_linear)" stroke="#D6571C"/>
<rect x="7.5" y="14.5" width="5" height="5" rx="0.5" fill="url(#paint1_linear)" stroke="#D6571C"/>
<rect x="19.5" y="7.5" width="5" height="5" rx="0.5" transform="rotate(90 19.5 7.5)" fill="url(#paint2_linear)" stroke="#D6571C"/>
<rect x="0.5" y="12.5" width="5" height="5" rx="0.5" transform="rotate(-90 0.5 12.5)" fill="url(#paint3_linear)" stroke="#D6571C"/>
<defs>
<linearGradient id="paint0_linear" x1="10" y1="0" x2="10" y2="6" gradientUnits="userSpaceOnUse">
<stop stop-color="#FFC79B"/>
<stop offset="1" stop-color="#DA6433"/>
</linearGradient>
<linearGradient id="paint1_linear" x1="10" y1="14" x2="10" y2="20" gradientUnits="userSpaceOnUse">
<stop stop-color="#FFC79B"/>
<stop offset="1" stop-color="#DA6433"/>
</linearGradient>
<linearGradient id="paint2_linear" x1="23" y1="7" x2="23" y2="13" gradientUnits="userSpaceOnUse">
<stop stop-color="#FFC79B"/>
<stop offset="1" stop-color="#DA6433"/>
</linearGradient>
<linearGradient id="paint3_linear" x1="3" y1="13" x2="3" y2="19" gradientUnits="userSpaceOnUse">
<stop stop-color="#FFC79B"/>
<stop offset="1" stop-color="#DA6433"/>
</linearGradient>
</defs>
</svg>
