<?xml version="1.0" encoding="iso-8859-1"?>
<!-- Generator: Adobe Illustrator 16.0.0, SVG Export Plug-In . SVG Version: 6.00 Build 0)  -->
<!DOCTYPE svg PUBLIC "-//W3C//DTD SVG 1.1//EN" "http://www.w3.org/Graphics/SVG/1.1/DTD/svg11.dtd">
<svg version="1.1" id="Capa_1" xmlns="http://www.w3.org/2000/svg" xmlns:xlink="http://www.w3.org/1999/xlink" x="0px" y="0px"
	 width="408.318px" height="408.318px" viewBox="0 0 408.318 408.318" style="enable-background:new 0 0 408.318 408.318;"
	 xml:space="preserve">
<g>
	<path d="M265.48,134.831l-13.388-13.388L89.531,284.006c-15.3,15.3-15.3,38.25,0,53.55c15.3,15.3,38.25,15.3,53.55,0
		l223.762-223.762c26.775-26.775,26.775-68.85,0-93.712c-26.774-26.775-68.85-26.775-95.625,0L49.369,243.843
		c-38.25,38.25-36.338,97.538,0,135.788c38.25,38.25,97.537,38.25,135.787,0l162.562-162.562l-15.3-15.3L169.856,364.33
		c-30.6,30.601-78.413,30.601-109.013,0c-30.6-30.6-30.6-78.412,0-109.012l223.762-221.85c19.125-19.125,49.725-19.125,66.938,0
		c19.125,19.125,19.125,49.725,0,66.938l-221.85,223.762c-7.65,7.65-19.125,7.65-26.775,0s-7.65-19.125,0-26.775L265.48,134.831z"/>
</g>
<g>
</g>
<g>
</g>
<g>
</g>
<g>
</g>
<g>
</g>
<g>
</g>
<g>
</g>
<g>
</g>
<g>
</g>
<g>
</g>
<g>
</g>
<g>
</g>
<g>
</g>
<g>
</g>
<g>
</g>
</svg>
