<svg width="16" height="16" viewBox="0 0 16 16" fill="none" xmlns="http://www.w3.org/2000/svg">
<path d="M10.7 8C10.3134 8 10 8.3134 10 8.7V9.3C10 9.6866 10.3134 10 10.7 10H15.3C15.6866 10 16 9.6866 16 9.3V8.7C16 8.3134 15.6866 8 15.3 8H10.7Z" fill="#E12119"/>
<path d="M10 11.7C10 11.3134 10.3134 11 10.7 11H15.3C15.6866 11 16 11.3134 16 11.7V12.3C16 12.6866 15.6866 13 15.3 13H10.7C10.3134 13 10 12.6866 10 12.3V11.7Z" fill="#E12119"/>
<path d="M10.7 14C10.3134 14 10 14.3134 10 14.7V15.3C10 15.6866 10.3134 16 10.7 16H15.3C15.6866 16 16 15.6866 16 15.3V14.7C16 14.3134 15.6866 14 15.3 14H10.7Z" fill="#E12119"/>
<path d="M9.22521 14C9.08348 14.197 9 14.4388 9 14.7V15.3C9 15.5612 9.08348 15.803 9.22521 16H5.7C5.3134 16 5 15.6866 5 15.3V14.7C5 14.3134 5.3134 14 5.7 14H9.22521Z" fill="#E12119"/>
<path d="M9 3.25V0H0.75C0.335781 0 0 0.335781 0 0.75V14.25C0 14.6642 0.335781 15 0.75 15H4V14.5C4 13.6716 4.67157 13 5.5 13H9V8.5C9 7.67157 9.67157 7 10.5 7H13V4H9.75C9.3375 4 9 3.6625 9 3.25Z" fill="#416AA3"/>
<path d="M12.7803 2.28034L10.7197 0.219656C10.579 0.0790133 10.3882 0 10.1893 0H10V3H13V2.81066C13 2.61175 12.921 2.42099 12.7803 2.28034Z" fill="#416AA3"/>
</svg>
