<svg width="16" height="16" viewBox="0 0 16 16" fill="none" xmlns="http://www.w3.org/2000/svg">
<path d="M8 8C10.2094 8 11.5 5.70937 11.5 3.5C11.5 1.29063 10.2094 0 8 0C5.79063 0 4.5 1.29063 4.5 3.5C4.5 5.70937 5.79063 8 8 8ZM10.9937 9.01875C10.5 11.5 9.5 14 9.5 14C9.5 14 9 11.5 8.5 10.75C9.5 10.5 9.5 9 9.5 9C9 9 7 9 6.5 9C6.5 9 6.5 10.5 7.5 10.75C7 11.5 6.5 14 6.5 14C6.5 14 5.5 11.5 5.00625 9.01875C2.77812 9.125 1 10.9469 1 13.2V14.5C1 15.3281 1.67188 16 2.5 16H13.5C14.3281 16 15 15.3281 15 14.5V13.2C15 10.9469 13.2219 9.125 10.9937 9.01875Z" fill="#E85552"/>
</svg>
