<svg width="16" height="16" viewBox="0 0 16 16" fill="none" xmlns="http://www.w3.org/2000/svg">
<path d="M14.5 2.25H1.5C0.671562 2.25 0 2.92156 0 3.75V12.75C0 13.5784 0.671562 14.25 1.5 14.25H14.5C15.3284 14.25 16 13.5784 16 12.75V3.75C16 2.92156 15.3284 2.25 14.5 2.25ZM14 4.25V4.75C13.2993 5.32059 12.8881 5.88003 10.5 7.75C9.97372 8.16397 8.72538 9.26159 8 9.25C7.27475 9.26172 6.02606 8.16381 5.5 7.75C3.11228 5.88031 2.70078 5.32069 2 4.75V4.25H14ZM2 12.25V7.25C2.71606 7.82034 3.23153 8.32063 4.77931 9.53263C5.46234 10.0703 6.6585 11.2572 8 11.25C9.33491 11.2572 10.5159 10.0875 11.2204 9.53288C12.7682 8.32091 13.2839 7.82037 14 7.25V12.25H2Z" fill="#416AA3"/>
</svg>
