<svg width="22" height="22" viewBox="0 0 22 22" fill="none" xmlns="http://www.w3.org/2000/svg">
<path d="M12.2929 8.29289C11.9024 8.68342 11.9024 9.31658 12.2929 9.70711C12.6834 10.0976 13.3166 10.0976 13.7071 9.70711L12.2929 8.29289ZM21 1H22V0H21V1ZM14 0C13.4477 0 13 0.447715 13 1C13 1.55228 13.4477 2 14 2V0ZM20 8C20 8.55228 20.4477 9 21 9C21.5523 9 22 8.55228 22 8H20ZM9.70711 13.7071C10.0976 13.3166 10.0976 12.6834 9.70711 12.2929C9.31658 11.9024 8.68342 11.9024 8.29289 12.2929L9.70711 13.7071ZM1 21H0V22H1V21ZM2 14C2 13.4477 1.55228 13 1 13C0.447715 13 0 13.4477 0 14H2ZM8 22C8.55228 22 9 21.5523 9 21C9 20.4477 8.55228 20 8 20V22ZM13.7071 9.70711L21.7071 1.70711L20.2929 0.292893L12.2929 8.29289L13.7071 9.70711ZM21 0H14V2H21V0ZM20 1V8H22V1H20ZM8.29289 12.2929L0.292893 20.2929L1.70711 21.7071L9.70711 13.7071L8.29289 12.2929ZM2 21V14H0V21H2ZM1 22H8V20H1V22Z" fill="#416AA3"/>
</svg>
