<svg width="48" height="16" viewBox="0 0 48 16" fill="none" xmlns="http://www.w3.org/2000/svg">
<path d="M46 16H2C0.897 16 0 15.103 0 14V2C0 0.897 0.897 0 2 0H46C47.103 0 48 0.897 48 2V14C48 15.103 47.103 16 46 16ZM2 1C1.449 1 1 1.449 1 2V14C1 14.552 1.449 15 2 15H46C46.552 15 47 14.552 47 14V2C47 1.449 46.552 1 46 1H2Z" fill="#1B900F"/>
<path d="M5.50497 3.57397C4.04197 3.57397 2.58997 4.73997 2.58997 7.85297C2.58997 10.967 4.04197 12.133 5.50497 12.133C6.96797 12.133 8.41997 10.967 8.41997 7.85397C8.41997 4.74097 6.96897 3.57397 5.50497 3.57397ZM4.33897 7.85297C4.33897 7.11597 4.41597 5.09197 5.50497 5.09197C6.59397 5.09197 6.67097 7.11597 6.67097 7.85297C6.67097 8.51297 6.59397 10.614 5.50497 10.614C4.41597 10.614 4.33897 8.51297 4.33897 7.85297ZM9.83997 3.70697V12H11.479V5.24697H13.14V12H14.779V3.70697H9.83997ZM21.431 3.70697H17.02V8.90997C17.02 9.92197 16.854 10.461 16.062 10.461H16.04V12H16.227C18.009 12 18.647 10.824 18.647 8.81097V5.24697H19.791V12.001H21.43L21.431 3.70697ZM24.573 3.70697L22.647 12.001H24.275L24.571 10.604H26.233L26.54 12.001H28.29L26.3 3.70697H24.573ZM25.992 9.30597H24.837L25.19 7.09497L25.366 5.84097H25.387L25.575 7.09497L25.992 9.30597ZM30.779 8.50297H31.418V12.001L33.057 12.002V3.70697H31.418V7.01797H31.23C30.251 7.01797 30.174 6.64397 30.174 5.45597V3.71797H28.534V6.00597C28.535 7.73298 29.107 8.50297 30.779 8.50297ZM34.771 3.70797L34.77 12.002H38.092V10.461H36.409V8.59097H37.872V7.05097H36.409V5.24797H38.07V3.70797H34.771ZM39.628 3.70797V12.002H41.267V8.49297H42.928V12.002H44.567V3.70797H42.928V6.95297H41.268V3.70797H39.628Z" fill="#1B900F"/>
</svg>
