<svg width="16" height="16" viewBox="0 0 16 16" fill="none" xmlns="http://www.w3.org/2000/svg">
<path fill-rule="evenodd" clip-rule="evenodd" d="M12.75 7H13.5C14.3281 7 15 7.67188 15 8.5V14.5C15 15.3281 14.3281 16 13.5 16H2.5C1.67188 16 1 15.3281 1 14.5V8.5C1 7.67188 1.67188 7 2.5 7H3.25V4.75C3.25 2.13125 5.38125 0 8 0C10.6187 0 12.75 2.13125 12.75 4.75V7ZM5.75 4.75V7H10.25V4.75C10.25 3.50938 9.24063 2.5 8 2.5C6.75938 2.5 5.75 3.50938 5.75 4.75ZM8 10C7.44772 10 7 10.4477 7 11V12C7 12.5523 7.44772 13 8 13C8.55229 13 9 12.5523 9 12V11C9 10.4477 8.55229 10 8 10Z" fill="#E85552"/>
</svg>
