<svg width="16" height="16" viewBox="0 0 16 16" fill="none" xmlns="http://www.w3.org/2000/svg">
<path fill-rule="evenodd" clip-rule="evenodd" d="M0 13.125V11.874C1.20996 12.7266 3.42188 13.125 5.625 13.125C6.44022 13.125 7.25665 13.0704 8.02308 12.9585C8.08737 13.5938 8.28381 14.1901 8.58448 14.7194C7.72467 14.8972 6.71064 15 5.625 15C2.51953 15 0 14.1592 0 13.125ZM14.3293 8.38739C14.757 8.12347 15 7.82147 15 7.5V6.24902C14.3203 6.72949 13.3213 7.05762 12.1875 7.25977V8.01068C12.2907 8.0036 12.395 8 12.5 8C13.1514 8 13.7704 8.1384 14.3293 8.38739ZM8.80473 9.93124C7.82578 10.184 6.72356 10.3125 5.625 10.3125C3.4248 10.3125 1.20996 9.79688 0 8.80078V10.3125C0 11.3467 2.51953 12.1875 5.625 12.1875C6.48399 12.1875 7.29816 12.1232 8.02657 12.0082C8.10989 11.2416 8.38573 10.5329 8.80473 9.93124ZM15 1.875C15 2.90918 12.4805 3.75 9.375 3.75C6.26953 3.75 3.75 2.90918 3.75 1.875C3.75 0.84082 6.26953 0 9.375 0C12.4805 0 15 0.84082 15 1.875ZM0 7.03125C0 5.73633 2.51953 4.6875 5.625 4.6875C8.73047 4.6875 11.25 5.73633 11.25 7.03125C11.25 8.32617 8.73047 9.375 5.625 9.375C2.51953 9.375 0 8.32617 0 7.03125ZM15 4.6875C15 5.39941 13.8076 6.02051 12.0498 6.33691C11.792 5.64258 11.1562 5.08008 10.292 4.66113C12.1729 4.56738 13.96 4.17188 15 3.43652V4.6875Z" fill="#E5A000"/>
<path fill-rule="evenodd" clip-rule="evenodd" d="M12.5 16C14.433 16 16 14.433 16 12.5C16 10.567 14.433 9 12.5 9C10.567 9 9 10.567 9 12.5C9 14.433 10.567 16 12.5 16ZM12 10.5V12H10.5V13H12V14.5H13V13H14.5V12H13V10.5H12Z" fill="#1B900F"/>
</svg>
