<svg width="16" height="17" viewBox="0 0 16 17" fill="none" xmlns="http://www.w3.org/2000/svg">
<g clip-path="url(#clip0)">
<path d="M7.68437 8.25313C7.52812 7.75313 7.53125 6.7875 7.62187 6.7875C7.88437 6.7875 7.85938 7.94063 7.68437 8.25313ZM7.63125 9.72812C7.39062 10.3594 7.09063 11.0813 6.74375 11.6875C7.31563 11.4688 7.9625 11.15 8.70937 11.0031C8.3125 10.7031 7.93125 10.2719 7.63125 9.72812ZM4.69062 13.6281C4.69062 13.6531 5.10313 13.4594 5.78125 12.3719C5.57188 12.5687 4.87188 13.1375 4.69062 13.6281ZM9.75 5.25H14V15.5C14 15.9156 13.6656 16.25 13.25 16.25H2.75C2.33437 16.25 2 15.9156 2 15.5V1C2 0.584375 2.33437 0.25 2.75 0.25H9V4.5C9 4.9125 9.3375 5.25 9.75 5.25ZM9.5 10.6187C8.875 10.2375 8.45937 9.7125 8.16563 8.9375C8.30625 8.35938 8.52812 7.48125 8.35938 6.93125C8.2125 6.0125 7.03437 6.10313 6.86562 6.71875C6.70937 7.29063 6.85313 8.09688 7.11875 9.125C6.75625 9.9875 6.22188 11.1437 5.84375 11.8062C5.84063 11.8062 5.84063 11.8094 5.8375 11.8094C4.99063 12.2437 3.5375 13.2 4.13438 13.9344C4.30938 14.15 4.63438 14.2469 4.80625 14.2469C5.36563 14.2469 5.92187 13.6844 6.71562 12.3156C7.52187 12.05 8.40625 11.7188 9.18437 11.5906C9.8625 11.9594 10.6562 12.2 11.1844 12.2C12.0969 12.2 12.1594 11.2 11.8 10.8438C11.3656 10.4187 10.1031 10.5406 9.5 10.6187ZM13.7812 3.53125L10.7188 0.46875C10.5781 0.328125 10.3875 0.25 10.1875 0.25H10V4.25H14V4.05938C14 3.8625 13.9219 3.67188 13.7812 3.53125ZM11.4656 11.5094C11.5938 11.425 11.3875 11.1375 10.1281 11.2281C11.2875 11.7219 11.4656 11.5094 11.4656 11.5094Z" fill="#416AA3"/>
</g>
<defs>
<clipPath id="clip0">
<rect width="16" height="16" fill="white" transform="translate(0 0.25)"/>
</clipPath>
</defs>
</svg>
