<svg width="16" height="17" viewBox="0 0 16 17" fill="none" xmlns="http://www.w3.org/2000/svg">
<path d="M14 6.25V2.66406C14 2.39875 13.8947 2.14469 13.7072 1.95687L12.2928 0.542812C12.1053 0.355312 11.8509 0.25 11.5856 0.25H3C2.44781 0.25 2 0.697812 2 1.25V6.25C0.895313 6.25 0 7.14531 0 8.25V11.75C0 12.0262 0.22375 12.25 0.5 12.25H2V15.25C2 15.8022 2.44781 16.25 3 16.25H13C13.5522 16.25 14 15.8022 14 15.25V12.25H15.5C15.7762 12.25 16 12.0262 16 11.75V8.25C16 7.14531 15.1047 6.25 14 6.25ZM12 14.25H4V11.25H12V14.25ZM12 7.25H4V2.25H10V3.75C10 4.02625 10.2238 4.25 10.5 4.25H12V7.25ZM13.5 9.5C13.0859 9.5 12.75 9.16406 12.75 8.75C12.75 8.33562 13.0859 8 13.5 8C13.9141 8 14.25 8.33562 14.25 8.75C14.25 9.16406 13.9141 9.5 13.5 9.5Z" fill="#416AA3"/>
</svg>
