<svg width="16" height="17" viewBox="0 0 16 17" fill="none" xmlns="http://www.w3.org/2000/svg">
<path d="M16 8.5C16 12.9193 12.418 16.5 8 16.5C3.58203 16.5 0 12.9193 0 8.5C0 4.08332 3.58203 0.5 8 0.5C12.418 0.5 16 4.08332 16 8.5ZM8.21468 3.14516C6.45671 3.14516 5.33548 3.88571 4.45503 5.20187C4.34097 5.37239 4.37913 5.60236 4.54261 5.72632L5.66194 6.57503C5.82984 6.70235 6.06906 6.67206 6.19952 6.50658C6.77577 5.77568 7.1709 5.35184 8.048 5.35184C8.707 5.35184 9.52213 5.77597 9.52213 6.415C9.52213 6.8981 9.12332 7.14619 8.47264 7.511C7.71381 7.93639 6.70968 8.46584 6.70968 9.79032V9.91935C6.70968 10.1331 6.883 10.3065 7.09677 10.3065H8.90323C9.117 10.3065 9.29032 10.1331 9.29032 9.91935V9.87635C9.29032 8.95823 11.9737 8.92 11.9737 6.43548C11.9737 4.56445 10.0329 3.14516 8.21468 3.14516ZM8 11.1452C7.18177 11.1452 6.51613 11.8108 6.51613 12.629C6.51613 13.4472 7.18177 14.1129 8 14.1129C8.81823 14.1129 9.48387 13.4472 9.48387 12.629C9.48387 11.8108 8.81823 11.1452 8 11.1452Z" fill="#416AA3"/>
</svg>
