<?xml version="1.0" encoding="utf-8"?>
<!-- Generator: Adobe Illustrator 24.0.2, SVG Export Plug-In . SVG Version: 6.00 Build 0)  -->
<svg version="1.1" id="Слой_1" xmlns="http://www.w3.org/2000/svg" xmlns:xlink="http://www.w3.org/1999/xlink" x="0px" y="0px"
	 viewBox="0 0 24 24" style="enable-background:new 0 0 24 24;" xml:space="preserve">
<style type="text/css">
	.st0{fill:#416AA3;}
</style>
<path class="st0" d="M23.5,16.4l-6.3,5c-0.5,0.4-1.1,0.6-1.7,0.6H0.7C0.3,22,0,21.7,0,21.3v-4c0-0.4,0.3-0.7,0.7-0.7H3l1.9-1.6
	C5.8,14.4,6.9,14,8,14h6.7c0.8,0,1.5,0.7,1.3,1.6c-0.1,0.7-0.7,1.1-1.4,1.1h-3.3c-0.4,0-0.7,0.3-0.7,0.7c0,0.4,0.3,0.7,0.7,0.7h4.9
	c0.6,0,1.2-0.2,1.7-0.6l3.8-3.1c0.5-0.4,1.3-0.4,1.8,0C24.2,14.9,24.1,15.9,23.5,16.4z M7,6c0-3.3,2.7-6,6-6s6,2.7,6,6s-2.7,6-6,6
	S7,9.3,7,6z M10.5,4.8c0,0.7,0.4,1.3,1,1.6c0.5,0.2,0.9,0.3,1.4,0.3c0.5,0.1,1.1,0,1.2,0.5c0.1,0.5-0.4,0.7-0.9,0.8
	c-0.5,0.1-1.2,0-1.6-0.2c-0.3-0.2-0.8-0.1-1,0.2c-0.2,0.3-0.1,0.8,0.2,1c0.3,0.2,0.8,0.4,1.3,0.4V10c0,0.4,0.3,0.8,0.8,0.8
	s0.8-0.3,0.8-0.8V9.5c0.4-0.1,0.9-0.3,1.3-0.6c0.4-0.4,0.7-1,0.7-1.7c0-1.4-1.2-1.8-2.4-1.9c-0.3,0-1.2,0-1.2-0.5
	c0-0.5,0.2-0.7,0.7-0.8c0.5-0.1,1.2,0.1,1.5,0.2c0.4,0.2,0.8,0,1-0.3c0.2-0.4,0-0.8-0.3-1c-0.3-0.1-0.7-0.3-1.2-0.4V2
	c0-0.4-0.3-0.8-0.8-0.8S12,1.6,12,2v0.6c-0.3,0.1-0.7,0.3-1,0.6C10.7,3.6,10.5,4.1,10.5,4.8z"/>
</svg>
