<svg width="11" height="9" viewBox="0 0 16 16" fill="none" xmlns="http://www.w3.org/2000/svg">
<path d="M1 7C0.447715 7 0 7.44772 0 8C0 8.55228 0.447715 9 1 9V7ZM14.5 8L15.2474 8.66436L15.8078 8.03395L15.2809 7.37531L14.5 8ZM11.2809 2.3753C10.9359 1.94404 10.3066 1.87412 9.87531 2.21913C9.44404 2.56414 9.37412 3.19343 9.71913 3.6247L11.2809 2.3753ZM9.75259 11.8356C9.38567 12.2484 9.42285 12.8805 9.83564 13.2474C10.2484 13.6143 10.8805 13.5771 11.2474 13.1644L9.75259 11.8356ZM1 9H14.5V7H1V9ZM15.2809 7.37531L11.2809 2.3753L9.71913 3.6247L13.7191 8.62469L15.2809 7.37531ZM13.7526 7.33564L9.75259 11.8356L11.2474 13.1644L15.2474 8.66436L13.7526 7.33564Z" fill="#416AA3"/>
</svg>
