<svg width="16" height="16" viewBox="0 0 16 16" fill="none" xmlns="http://www.w3.org/2000/svg">
<path d="M15.4711 9.92257L14.0969 9.12903C14.2356 8.38064 14.2356 7.6129 14.0969 6.86452L15.4711 6.07097C15.6291 5.98065 15.7001 5.79356 15.6485 5.61936C15.2904 4.47098 14.6808 3.43228 13.884 2.56776C13.7614 2.4355 13.5614 2.40325 13.4066 2.49357L12.0324 3.28711C11.455 2.79034 10.7905 2.40647 10.0711 2.15486V0.570996C10.0711 0.390351 9.9453 0.232287 9.76788 0.193578C8.58401 -0.0709372 7.37111 -0.0580341 6.24531 0.193578C6.06789 0.232287 5.94209 0.390351 5.94209 0.570996V2.15809C5.22596 2.41292 4.56145 2.79679 3.9808 3.29034L2.60984 2.49679C2.45178 2.40647 2.255 2.4355 2.13242 2.57099C1.33565 3.43228 0.725978 4.47098 0.367915 5.62259C0.313076 5.79678 0.38727 5.98388 0.545334 6.0742L1.91952 6.86775C1.78081 7.61613 1.78081 8.38387 1.91952 9.13225L0.545334 9.9258C0.38727 10.0161 0.316302 10.2032 0.367915 10.3774C0.725978 11.5258 1.33565 12.5645 2.13242 13.429C2.255 13.5613 2.455 13.5935 2.60984 13.5032L3.98403 12.7097C4.56145 13.2064 5.22596 13.5903 5.94531 13.8419V15.429C5.94531 15.6096 6.07112 15.7677 6.24854 15.8064C7.4324 16.0709 8.6453 16.058 9.7711 15.8064C9.94852 15.7677 10.0743 15.6096 10.0743 15.429V13.8419C10.7905 13.5871 11.455 13.2032 12.0356 12.7097L13.4098 13.5032C13.5679 13.5935 13.7646 13.5645 13.8872 13.429C14.684 12.5677 15.2937 11.529 15.6517 10.3774C15.7001 10.2 15.6291 10.0129 15.4711 9.92257ZM8.0066 10.5774C6.58402 10.5774 5.42596 9.41935 5.42596 7.99677C5.42596 6.5742 6.58402 5.41614 8.0066 5.41614C9.42917 5.41614 10.5872 6.5742 10.5872 7.99677C10.5872 9.41935 9.42917 10.5774 8.0066 10.5774Z" fill="#416AA3"/>
</svg>
