<svg width="24" height="24" viewBox="0 0 24 24" fill="none" xmlns="http://www.w3.org/2000/svg">
<path d="M8.25 9.75C8.25 8.92172 7.57828 8.25 6.75 8.25H6C4.34297 8.25 3 9.59297 3 11.25V13.5C3 15.157 4.34297 16.5 6 16.5H6.75C7.57828 16.5 8.25 15.8283 8.25 15V9.75ZM18 16.5C19.657 16.5 21 15.157 21 13.5V11.25C21 9.59297 19.657 8.25 18 8.25H17.25C16.4217 8.25 15.75 8.92172 15.75 9.75V15C15.75 15.8283 16.4217 16.5 17.25 16.5H18ZM12 0C5.30531 0 0.214687 5.57016 0 12V12.75C0 13.1644 0.335625 13.5 0.75 13.5H1.5C1.91438 13.5 2.25 13.1644 2.25 12.75V12C2.25 6.62391 6.62391 2.25 12 2.25C17.3761 2.25 21.75 6.62391 21.75 12H21.7444C21.7481 12.1139 21.75 19.7681 21.75 19.7681C21.75 20.8627 20.8627 21.75 19.7681 21.75H15C15 20.5073 13.9927 19.5 12.75 19.5H11.25C10.0073 19.5 9 20.5073 9 21.75C9 22.9927 10.0073 24 11.25 24H19.7681C22.1053 24 24 22.1053 24 19.7681V12C23.7853 5.57016 18.6947 0 12 0Z" fill="#416AA3"/>
</svg>
