<svg width="16" height="16" viewBox="0 0 16 16" fill="none" xmlns="http://www.w3.org/2000/svg">
<path d="M11.348 8.02989C11.6407 7.56155 11.4984 6.9446 11.03 6.65189C10.5617 6.35918 9.94475 6.50155 9.65204 6.96989L7.74747 10.0172L6.12473 8.71902C5.69347 8.37401 5.06418 8.44393 4.71917 8.87519C4.37416 9.30646 4.44408 9.93575 4.87534 10.2808L7.37534 12.2808C7.5982 12.459 7.88662 12.5336 8.16797 12.4857C8.44931 12.4378 8.69677 12.2719 8.84804 12.0299L11.348 8.02989Z" fill="#416AA3"/>
<path fill-rule="evenodd" clip-rule="evenodd" d="M15 14.5V3.5C15 2.67188 14.3281 2 13.5 2H12V1C12 0.5 11.625 0 11 0C10.375 0 10 0.5 10 1V2H6V1C6 0.5 5.5 0 5 0C4.5 0 4 0.5 4 1V2H2.5C1.67188 2 1 2.67188 1 3.5V14.5C1 15.3281 1.67188 16 2.5 16H13.5C14.3281 16 15 15.3281 15 14.5ZM13 5V13C13 13.5 13 14 12.5 14H3.5C3 14 3 13.5 3 13V5H13Z" fill="#416AA3"/>
</svg>
