<?xml version="1.0" encoding="utf-8"?>
<!-- Generator: Adobe Illustrator 24.0.2, SVG Export Plug-In . SVG Version: 6.00 Build 0)  -->
<svg version="1.1" id="Слой_1" xmlns="http://www.w3.org/2000/svg" xmlns:xlink="http://www.w3.org/1999/xlink" x="0px" y="0px"
	 viewBox="0 0 20 20" style="enable-background:new 0 0 20 20;" xml:space="preserve">
<style type="text/css">
	.st0{fill-rule:evenodd;clip-rule:evenodd;fill:#416AA3;}
</style>
<path class="st0" d="M0.1,4.1L10,0l9.9,4.1L19.5,6h-19L0.1,4.1z M10,2.2L14.4,4H5.6L10,2.2z M1.4,16H5l0,0h2V8H2.5
	C2.2,8,2,7.8,2,7.5C2,7.2,2.2,7,2.5,7h15C17.8,7,18,7.2,18,7.5C18,7.8,17.8,8,17.5,8H17v8h1.5c0.3,0,0.5,0.2,0.5,0.5V17H1v-0.5
	C1,16.3,1.2,16.1,1.4,16z M11,16V8H9v8H11z M13,16h2V8h-2V16z M0,18.5V20h20v-1.5c0-0.3-0.2-0.5-0.5-0.5h-19C0.2,18,0,18.2,0,18.5z
	 M2.3,9.3c0.4-0.4,1-0.4,1.4,0l2,2c0.4,0.4,0.4,1,0,1.4l-2,2c-0.4,0.4-1,0.4-1.4,0c-0.4-0.4-0.4-1,0-1.4l0.5-0.5H0.8
	C0.3,12.8,0,12.4,0,12s0.3-0.8,0.8-0.8h2.1l-0.5-0.5C1.9,10.3,1.9,9.7,2.3,9.3z"/>
</svg>
