<?xml version="1.0" encoding="utf-8"?>
<!-- Generator: Adobe Illustrator 24.0.2, SVG Export Plug-In . SVG Version: 6.00 Build 0)  -->
<svg version="1.1" id="Слой_1" xmlns="http://www.w3.org/2000/svg" xmlns:xlink="http://www.w3.org/1999/xlink" x="0px" y="0px"
	 viewBox="0 0 20 20" style="enable-background:new 0 0 20 20;" xml:space="preserve">
<style type="text/css">
	.st0{fill-rule:evenodd;clip-rule:evenodd;fill:#416AA3;}
</style>
<path class="st0" d="M7,5H3.5C2.7,5,2,4.3,2,3.5v-2C2,0.7,2.7,0,3.5,0h8C12.3,0,13,0.7,13,1.5v2C13,4.3,12.3,5,11.5,5H9v1h8
	c0.4,0,0.8,0.3,1,0.7l2,7c0,0.1,0,0.2,0,0.3v3c0,1.7-1.3,3-3,3H3c-1.7,0-3-1.3-3-3v-3c0-0.1,0-0.2,0-0.3L0.2,13h17.4l-1.4-5H7.1
	L5.4,6H7V5z M4,3V2h7v1H4z M2,15h16v2c0,0.6-0.4,1-1,1H3c-0.6,0-1-0.4-1-1V15z M4,16.5C4,16.2,4.2,16,4.5,16h7
	c0.3,0,0.5,0.2,0.5,0.5S11.8,17,11.5,17h-7C4.2,17,4,16.8,4,16.5z M8.5,9.5C8.5,9.2,8.7,9,9,9h2c0.3,0,0.5,0.2,0.5,0.5
	S11.3,10,11,10H9C8.7,10,8.5,9.8,8.5,9.5z M13,9c-0.3,0-0.5,0.2-0.5,0.5S12.7,10,13,10h2c0.3,0,0.5-0.2,0.5-0.5S15.3,9,15,9H13z
	 M8.5,11C8.2,11,8,11.2,8,11.5S8.2,12,8.5,12h3c0.3,0,0.5-0.2,0.5-0.5S11.8,11,11.5,11H8.5z M13.5,11c-0.3,0-0.5,0.2-0.5,0.5
	s0.2,0.5,0.5,0.5h2c0.3,0,0.5-0.2,0.5-0.5S15.8,11,15.5,11H13.5z M2.3,6.3c0.4-0.4,1-0.4,1.4,0l2,2c0.4,0.4,0.4,1,0,1.4l-2,2
	c-0.4,0.4-1,0.4-1.4,0c-0.4-0.4-0.4-1,0-1.4l0.5-0.5H0.8C0.3,9.8,0,9.4,0,9s0.3-0.8,0.8-0.8h2.1L2.3,7.7C1.9,7.3,1.9,6.7,2.3,6.3z"
	/>
</svg>
