<svg style="margin-left:-1px; -webkit-transform: rotate(180deg);    -ms-transform: rotate(180deg);    transform: rotate(180deg);" width="16" height="16" viewBox="0 0 16 16" fill="none" xmlns="http://www.w3.org/2000/svg">
<path d="M4.38388 5.11612C3.89573 4.62796 3.10427 4.62796 2.61612 5.11612C2.12796 5.60427 2.12796 6.39573 2.61612 6.88388L4.38388 5.11612ZM7.5 10L6.61612 10.8839C7.10427 11.372 7.89573 11.372 8.38388 10.8839L7.5 10ZM12.3839 6.88388C12.872 6.39573 12.872 5.60427 12.3839 5.11612C11.8957 4.62796 11.1043 4.62796 10.6161 5.11612L12.3839 6.88388ZM2.61612 6.88388L6.61612 10.8839L8.38388 9.11612L4.38388 5.11612L2.61612 6.88388ZM8.38388 10.8839L12.3839 6.88388L10.6161 5.11612L6.61612 9.11612L8.38388 10.8839Z" fill="#416AA3"/>
</svg>
