<svg width="16" height="11" viewBox="0 0 16 11" fill="none" xmlns="http://www.w3.org/2000/svg">
<path d="M15.9033 5.17778C14.3969 2.23861 11.4147 0.25 7.99998 0.25C4.58526 0.25 1.60221 2.24 0.0966515 5.17806C0.0331076 5.30375 0 5.44263 0 5.58347C0 5.72432 0.0331076 5.86319 0.0966515 5.98889C1.60304 8.92805 4.58526 10.9167 7.99998 10.9167C11.4147 10.9167 14.3978 8.92667 15.9033 5.98861C15.9669 5.86291 16 5.72404 16 5.58319C16 5.44235 15.9669 5.30347 15.9033 5.17778ZM7.99998 9.58333C7.20886 9.58333 6.4355 9.34874 5.7777 8.90921C5.11991 8.46969 4.60722 7.84497 4.30447 7.11407C4.00172 6.38316 3.9225 5.5789 4.07684 4.80297C4.23118 4.02705 4.61215 3.31432 5.17156 2.75491C5.73097 2.1955 6.4437 1.81453 7.21962 1.66019C7.99555 1.50585 8.79981 1.58506 9.53072 1.88782C10.2616 2.19057 10.8863 2.70326 11.3259 3.36105C11.7654 4.01885 12 4.79221 12 5.58333C12.0002 6.10869 11.897 6.62895 11.696 7.11437C11.4951 7.59979 11.2005 8.04084 10.829 8.41233C10.4575 8.78382 10.0164 9.07844 9.53102 9.27937C9.0456 9.4803 8.52534 9.58359 7.99998 9.58333ZM7.99998 2.91667C7.76197 2.91999 7.52548 2.9554 7.29693 3.02194C7.48532 3.27796 7.57573 3.59302 7.55175 3.90998C7.52777 4.22694 7.391 4.52482 7.16623 4.74958C6.94147 4.97435 6.6436 5.11112 6.32664 5.1351C6.00968 5.15908 5.69462 5.06867 5.4386 4.88028C5.29281 5.41739 5.31913 5.98669 5.51384 6.50806C5.70856 7.02942 6.06187 7.4766 6.52404 7.78665C6.98622 8.09671 7.53399 8.25402 8.09025 8.23644C8.64652 8.21887 9.18327 8.0273 9.62495 7.6887C10.0666 7.35009 10.391 6.8815 10.5524 6.34889C10.7139 5.81627 10.7042 5.24644 10.5248 4.7196C10.3454 4.19277 10.0053 3.73545 9.55238 3.41203C9.09946 3.08861 8.55653 2.91536 7.99998 2.91667Z" fill="#416AA3"/>
</svg>
