<svg width="31" height="31" viewBox="0 0 31 31" fill="none" xmlns="http://www.w3.org/2000/svg">
<path d="M29.8192 22.4447L18.9038 5.44006C17.032 2.52388 13.9683 2.52388 12.096 5.44006L1.18056 22.4447C-0.691249 25.3606 -0.229458 27.7467 2.20786 27.7467H28.7925C31.2292 27.7467 31.6915 25.3606 29.8192 22.4447ZM16.9077 23.95C16.5486 24.3329 16.1221 24.524 15.6281 24.524C15.06 24.524 14.5771 24.3329 14.1777 23.95C13.7784 23.5674 13.5785 23.1185 13.5785 22.6026C13.5785 22.0705 13.7739 21.6172 14.1642 21.243C14.5545 20.8686 15.0419 20.6815 15.6281 20.6815C16.1221 20.6815 16.5486 20.8729 16.9077 21.2553C17.2667 21.6384 17.446 22.0872 17.446 22.6026C17.446 23.1185 17.2667 23.5674 16.9077 23.95ZM17.2617 14.5704C17.1393 16.4422 17.0779 17.758 17.0779 18.5196C17.0779 19.0662 16.5524 19.3467 15.5122 19.3674C14.4721 19.3467 13.9466 19.0662 13.9466 18.5196C13.9466 17.758 13.8852 16.4421 13.7628 14.5704C13.64 12.6991 13.5785 11.3762 13.5785 10.6017C13.5785 10.2406 13.7709 9.95311 14.1551 9.74035C14.5126 9.54218 14.9679 9.43997 15.5122 9.42635C16.0567 9.43997 16.5119 9.54218 16.8695 9.74035C17.2537 9.95311 17.446 10.2406 17.446 10.6017C17.446 11.3762 17.3845 12.6991 17.2617 14.5704Z" fill="#FF8A28"/>
</svg>
