<svg width="16" height="16" viewBox="0 0 16 16" fill="none" xmlns="http://www.w3.org/2000/svg">
<path fill-rule="evenodd" clip-rule="evenodd" d="M1.7 0C0.761116 0 0 0.761116 0 1.7V14.3C0 15.2389 0.761116 16 1.7 16H14.3C15.2389 16 16 15.2389 16 14.3V1.7C16 0.761116 15.2389 0 14.3 0H1.7ZM14.8445 4.722C14.931 4.722 15 4.6525 15 4.5665V4.156C15 4.0705 14.931 4.0005 14.844 4.0005H12.127C12.041 4.0005 11.9715 4.07 11.9715 4.156V4.5665C11.9715 4.6525 12.041 4.722 12.127 4.722H13.0005L10.244 10.8435L8.8155 7.9065L10.5685 4.722H11.058C11.1445 4.722 11.2135 4.6525 11.2135 4.5665V4.156C11.2135 4.07 11.1445 4.0005 11.058 4.0005H8.8255C8.739 4.0005 8.67 4.07 8.67 4.156V4.5665C8.67 4.6525 8.739 4.722 8.8255 4.722H9.562L8.361 6.929L7.3525 4.722H7.757C7.843 4.722 7.9125 4.6525 7.9125 4.5665V4.156C7.9125 4.07 7.843 4.0005 7.757 4.0005H5.459C5.373 4.0005 5.3035 4.07 5.3035 4.156V4.567C5.3035 4.653 5.373 4.7225 5.459 4.7225H5.881L7.6345 8.269L6.2515 10.853L3.5935 4.7215H4.2625C4.3485 4.7215 4.418 4.652 4.418 4.566V4.1555C4.418 4.0695 4.3485 4 4.2625 4H1.1555C1.0695 4 1 4.0695 1 4.1555V4.5665C1 4.652 1.0695 4.722 1.1555 4.722H2.028L5.879 12.83C5.904 12.883 5.957 12.917 6.0155 12.919C6.0785 12.918 6.1285 12.889 6.1565 12.8375L8.107 9.248L9.9145 12.833C9.941 12.886 9.995 12.919 10.054 12.919H10.056C10.116 12.9185 10.17 12.883 10.195 12.8295L14.0045 4.722H14.8445Z" fill="#DFE8F6"/>
</svg>
