<svg width="16" height="16" viewBox="0 0 16 16" fill="none" xmlns="http://www.w3.org/2000/svg">
<path d="M0 3C0 1.89543 0.895431 1 2 1H6C7.10457 1 8 1.89543 8 3V4H14C15.1046 4 16 4.89543 16 6V12C16 13.1046 15.1046 14 14 14H2C0.895431 14 0 13.1046 0 12V3Z" fill="white"/>
<path fill-rule="evenodd" clip-rule="evenodd" d="M7 5V3C7 2.44772 6.55228 2 6 2H2C1.44772 2 1 2.44772 1 3V12C1 12.5523 1.44772 13 2 13H14C14.5523 13 15 12.5523 15 12V6C15 5.44772 14.5523 5 14 5H7ZM14 4C15.1046 4 16 4.89543 16 6V12C16 13.1046 15.1046 14 14 14H2C0.895431 14 0 13.1046 0 12V3C0 1.89543 0.895431 1 2 1H6C7.10457 1 8 1.89543 8 3V4H14Z" fill="#416AA3"/>
</svg>
