<svg width="18" height="16" viewBox="0 0 18 16" fill="none" xmlns="http://www.w3.org/2000/svg">
<path d="M2 1C0.895431 1 0 1.89543 0 3V12C0 13.1046 0.89543 14 2 14H12.1715C12.702 14 13.2107 13.7893 13.5857 13.4142L16.5857 10.4142C17.8457 9.15428 16.9533 7 15.1715 7H14V6C14 4.89543 13.1046 4 12 4H7V3C7 1.89543 6.10457 1 5 1H2Z" fill="white"/>
<path fill-rule="evenodd" clip-rule="evenodd" d="M14 7V6C14 4.89543 13.1046 4 12 4H7V3C7 1.89543 6.10457 1 5 1H2C0.895431 1 0 1.89543 0 3V12C0 13.1046 0.89543 14 2 14H12.1715C12.702 14 13.2107 13.7893 13.5857 13.4142L16.5857 10.4142C17.8457 9.15428 16.9533 7 15.1715 7H14ZM6 5V3C6 2.44772 5.55228 2 5 2H2C1.44772 2 1 2.44772 1 3V10.5C1.00195 10.4983 1.0039 10.4966 1.00585 10.4948L4.43442 7.49485C4.79901 7.17584 5.26699 7 5.75143 7H13V6C13 5.44772 12.5523 5 12 5H6ZM2.32286 13H12.1715C12.4368 13 12.6911 12.8946 12.8786 12.7071L15.8786 9.70711C16.5086 9.07714 16.0624 8 15.1715 8H5.75143C5.50921 8 5.27522 8.08792 5.09293 8.24742L1.66436 11.2474C0.969453 11.8555 1.3995 13 2.32286 13Z" fill="#416AA3"/>
</svg>
