<svg width="16" height="16" viewBox="0 0 16 16" fill="none" xmlns="http://www.w3.org/2000/svg">
<path d="M0 1C0 0.447715 0.447715 0 1 0H8.5L14 6.5V15C14 15.5523 13.5523 16 13 16H1C0.447716 16 0 15.5523 0 15V1Z" fill="white"/>
<path fill-rule="evenodd" clip-rule="evenodd" d="M8.5 0H1C0.447715 0 0 0.447715 0 1V15C0 15.5523 0.447716 16 1 16H13C13.5523 16 14 15.5523 14 15V6.5L8.5 0ZM12.267 6L9 2.13904V5.5C9 5.77614 9.22386 6 9.5 6H12.267ZM8 1H1V15H13V7H9.5C8.67157 7 8 6.32843 8 5.5V1Z" fill="#416AA3"/>
</svg>
